<svg id="Group_45" data-name="Group 45" xmlns="http://www.w3.org/2000/svg" viewBox="0 0 284.923 292.052">
  <defs>
    <style>
      .cls-1 {
        fill: #6d2418;
      }

      .cls-2 {
        fill: #40a830;
      }

      .cls-3 {
        fill: #116b11;
      }

      .cls-4 {
        fill: #0d3e0e;
      }

      .cls-5 {
        fill: #72e4ee;
      }
    </style>
  </defs>
  <path id="Path_100" data-name="Path 100" class="cls-1" d="M405.94,103.4l-16.034,16.489-1.706-1.706Z" transform="translate(-167.472 -44.607)"/>
  <path id="Path_101" data-name="Path 101" class="cls-1" d="M411.534,112.2l-20.242,15.921L389.7,125.9Z" transform="translate(-168.119 -48.404)"/>
  <path id="Path_102" data-name="Path 102" class="cls-1" d="M56.864,154.386l5.686-.057,3.639-.341,9.154,4.321.512-1.194L55.045,145.8,49.7,168.657l17.058,7.335v-3.07L50.382,166.5l2.274-3.355,15.693,7.733,1.251-.91L52.316,161.1l4.378-12.339,8.017,3.866-2.672.967Z" transform="translate(-21.441 -62.899)"/>
  <path id="Path_103" data-name="Path 103" class="cls-1" d="M300.9,65.14l3.014-17.74,2.331.057-.967,7.278L311.59,47.4l.739,1.365-6.141,7.392-2.331,9.723Z" transform="translate(-129.81 -20.449)"/>
  <path id="Path_104" data-name="Path 104" class="cls-1" d="M436.657,250.086l23.938-2.445L436.6,247.3Z" transform="translate(-188.352 -106.687)"/>
  <path id="Path_105" data-name="Path 105" class="cls-1" d="M331.68,45,321.9,67.4l2.388,1.82Z" transform="translate(-138.869 -19.413)"/>
  <path id="Path_106" data-name="Path 106" class="cls-1" d="M350.052,67.1,340.5,83.021l3.013.4L352.1,68.067l3.014,2.729-9.78,14.5.739,1.365,11.144-15.978,11.6,6.027-11.94,17.228,1.137.682L372,75.515Z" transform="translate(-146.894 -28.947)"/>
  <path id="Path_107" data-name="Path 107" class="cls-1" d="M105.4,101.8l11.031,10.974-1.592,1.82Z" transform="translate(-45.47 -43.917)"/>
  <path id="Path_108" data-name="Path 108" class="cls-1" d="M68.1,117l21.209,14.67L87.66,133.83Z" transform="translate(-29.379 -50.474)"/>
  <path id="Path_109" data-name="Path 109" class="cls-1" d="M46.5,303.245,63.046,297.9l.512,3.81Z" transform="translate(-20.06 -128.516)"/>
  <path id="Path_110" data-name="Path 110" class="cls-2" d="M312.184,20.44c-1.99-2.047-1.763-3.184-3.923-3.468-2.672-.4-4.435-1.99-7.392-.4-1.876,1.023-1.365,1.478-2.218,3.014-.682,1.251-1.819,1.819-3.013,2.957-3.241,3.07-2.445,4.321-.455,7.619.8,1.308.682.569.625,2.218-.057,1.478-.512,1.933.341,3.127,1.137,1.592,4.321,2.616,6.141,2.616,1.592,0,3.3-.569,4.719-.512s2.1.4,3.468-.341a16.009,16.009,0,0,0,6.368-6.823C319.746,24.534,312.184,20.44,312.184,20.44Z" transform="translate(-126.594 -6.851)"/>
  <path id="Path_111" data-name="Path 111" class="cls-1" d="M174.784,70.1,168.7,53.153l2.047-1.08,2.786,6.823,1.876-9.5,1.308.853-1.706,9.439,2.729,9.609Z" transform="translate(-72.778 -21.311)"/>
  <path id="Path_112" data-name="Path 112" class="cls-2" d="M164.34,24.569c-2.729-.8-3.127-1.876-5.117-1.08-2.5.967-4.833.455-6.653,3.3-1.137,1.819-.455,1.99-.455,3.7,0,1.478-.682,2.445-1.194,4.037-1.308,4.264,0,4.947,3.355,6.88,1.308.739.853.171,1.592,1.649.682,1.308.455,1.933,1.819,2.559,1.763.8,5.06.171,6.6-.739,1.365-.8,2.559-2.1,3.866-2.786,1.251-.625,2.047-.682,2.843-1.99a15.972,15.972,0,0,0,2.217-9.041C172.925,24.455,164.34,24.569,164.34,24.569Z" transform="translate(-64.893 -10.013)"/>
  <path id="Path_113" data-name="Path 113" class="cls-3" d="M371.9,51.96c-1.137-1.308-4.776-.91-6.255-1.251-3.241-.8-2.616-2.559-2.1-5.288.512-3.07-.4-4.719-3.468-3.3-1.421-2.331-2.274-5.515-5-6.709-1.763-.8-3.7-.171-5.629-.569-6.141-1.194-17.285-7.449-22.062-.625-2.217,3.127.4,8.586,3.923,9.382,4.037.967.682,2.388,2.217,4.378.682.91,3.412.284,4.435.739,1.649.739,1.308.512,1.422,2.161.114,1.308-.512,1.99.284,3.241a5.438,5.438,0,0,0,4.321,2.047c1.023,2.047-.057,3.468,1.876,4.833,2.331,1.649,6.027.8,8.358-.625,1.194,2.218,2.445,3.7,4.89,4.264,2.388.512,3.127-.341,5.288-1.08,1.706-.569,3.81,0,5.4-.853,2.1-1.137,1.251-2.445,1.478-4.321C371.5,56.565,373.378,53.722,371.9,51.96Z" transform="translate(-140.88 -13.409)"/>
  <path id="Path_114" data-name="Path 114" class="cls-1" d="M54.248,233.4l-17.968-.569L36,230.555l7.335-.057L35.2,225.21l1.251-.91,8.188,5.06,9.894,1.023Z" transform="translate(-15.185 -96.764)"/>
  <path id="Path_115" data-name="Path 115" class="cls-1" d="M30.2,207l23.54,6.709,1.478-2.616Z" transform="translate(-13.028 -89.301)"/>
  <path id="Path_116" data-name="Path 116" class="cls-4" d="M8.554,217.586c-1.763,2.274-2.9,2.218-2.9,4.378,0,2.729-1.365,4.663.625,7.392,1.251,1.706,1.649,1.137,3.241,1.763,1.365.512,2.047,1.535,3.3,2.559,3.525,2.786,4.606,1.82,7.619-.569,1.194-.967.512-.739,2.1-.91,1.478-.171,1.99.284,3.07-.739,1.421-1.365,1.99-4.606,1.763-6.425-.227-1.535-1.023-3.184-1.137-4.662-.114-1.421.114-2.1-.8-3.412a16.234,16.234,0,0,0-7.562-5.4C11.567,209.569,8.554,217.586,8.554,217.586Z" transform="translate(-2.242 -91.131)"/>
  <path id="Path_117" data-name="Path 117" class="cls-2" d="M60.785,259.578c1.478-2.445,2.616-2.5,2.388-4.662-.284-2.672.8-4.776-1.478-7.278-1.421-1.592-1.763-.967-3.468-1.365-1.421-.341-2.218-1.308-3.582-2.161-3.81-2.388-4.833-1.251-7.505,1.478-1.08,1.08-.4.8-1.99,1.137-1.478.341-1.99-.057-2.957,1.137-1.251,1.478-1.421,4.833-.967,6.6.4,1.535,1.365,3.014,1.706,4.492.284,1.365.114,2.1,1.194,3.3a16.145,16.145,0,0,0,8.188,4.435C58.738,267.994,60.785,259.578,60.785,259.578Z" transform="translate(-17.686 -104.75)"/>
  <path id="Path_118" data-name="Path 118" class="cls-3" d="M387.185,125.478c1.478-2.445,2.615-2.5,2.388-4.662-.284-2.672.8-4.776-1.478-7.278-1.422-1.592-1.763-.967-3.468-1.365-1.421-.341-2.217-1.308-3.582-2.161-3.81-2.388-4.833-1.251-7.505,1.478-1.08,1.08-.4.8-1.99,1.137-1.478.341-1.99-.057-2.957,1.137-1.251,1.478-1.422,4.833-.967,6.6.4,1.535,1.365,3.014,1.706,4.492.284,1.365.114,2.1,1.194,3.3a16.145,16.145,0,0,0,8.188,4.435C385.138,133.894,387.185,125.478,387.185,125.478Z" transform="translate(-158.497 -46.899)"/>
  <path id="Path_119" data-name="Path 119" class="cls-1" d="M123.048,396.149l-8.643,15.75-2.217-.8,3.3-6.539-8.358,4.833-.227-1.535,8.188-4.947,5.4-8.415Z" transform="translate(-46.117 -170.19)"/>
  <path id="Path_120" data-name="Path 120" class="cls-1" d="M88.2,401.013,104.8,383.1l-1.649-2.5Z" transform="translate(-38.05 -164.193)"/>
  <path id="Path_121" data-name="Path 121" class="cls-1" d="M64.668,368l14.272-11.884L76.21,354.7,63.019,366.408l-1.933-3.582,13.987-10.462-.227-1.535L59.1,362.257l-8.984-9.552,16.944-12.282-.8-1.023L46.7,352.819Z" transform="translate(-20.147 -146.419)"/>
  <path id="Path_122" data-name="Path 122" class="cls-2" d="M90.961,428.956c1.194,2.559.625,3.582,2.559,4.549,2.388,1.251,3.525,3.355,6.88,2.843,2.1-.341,1.763-.967,3.07-2.1,1.08-.967,2.331-1.137,3.81-1.763,4.094-1.82,3.7-3.3,2.957-7.051-.284-1.478-.455-.8.171-2.274.512-1.365,1.137-1.649.682-3.07-.569-1.876-3.184-3.866-4.947-4.492-1.478-.512-3.3-.512-4.662-1.08-1.308-.512-1.82-1.08-3.412-.853a15.885,15.885,0,0,0-8.245,4.321C85.162,422.588,90.961,428.956,90.961,428.956Z" transform="translate(-37.968 -178.433)"/>
  <path id="Path_123" data-name="Path 123" class="cls-3" d="M32.176,365.65c.625,1.649,4.208,2.388,5.515,3.3,2.786,1.82,1.592,3.3.284,5.686-1.535,2.672-1.194,4.606,2.218,4.264.569,2.672.341,5.97,2.5,7.96,1.421,1.308,3.412,1.365,5.117,2.388,5.4,3.127,13.874,12.737,20.583,7.9,3.127-2.274,2.445-8.245-.625-10.178-3.525-2.218.171-2.445-.625-4.89-.341-1.08-3.127-1.365-3.923-2.161-1.308-1.251-1.023-.91-.625-2.5.341-1.308,1.137-1.706.8-3.127a5.541,5.541,0,0,0-3.412-3.355c-.284-2.274,1.194-3.241-.171-5.174-1.706-2.331-5.459-2.729-8.074-2.161-.341-2.5-1.08-4.321-3.184-5.629-2.047-1.308-3.07-.682-5.345-.739-1.763,0-3.582-1.251-5.4-.967-2.388.4-1.99,1.933-2.843,3.639C34.053,361.442,31.323,363.546,32.176,365.65Z" transform="translate(-13.811 -153.678)"/>
  <path id="Path_124" data-name="Path 124" class="cls-2" d="M31.91,136.774c-1.137,1.308-.227,4.833-.4,6.368-.4,3.3-2.161,2.9-4.947,2.786-3.07-.114-4.606,1.023-2.786,3.866-2.1,1.706-5.174,3.014-5.97,5.857-.512,1.876.341,3.7.227,5.629-.341,6.2-5.06,18.138,2.331,21.948,3.412,1.763,8.415-1.535,8.813-5.117.4-4.151,2.274-.967,4.037-2.786.8-.8-.171-3.412.171-4.492.512-1.763.341-1.365,1.99-1.706,1.308-.284,2.047.227,3.127-.739a5.755,5.755,0,0,0,1.478-4.606c1.876-1.308,3.412-.4,4.549-2.5,1.308-2.559-.057-6.084-1.763-8.188,2.047-1.478,3.355-2.9,3.582-5.4.227-2.388-.8-3.07-1.763-5.117-.8-1.592-.512-3.81-1.592-5.231-1.421-1.933-2.616-.91-4.492-.853C36.573,136.547,33.445,135.068,31.91,136.774Z" transform="translate(-7.006 -58.649)"/>
  <path id="Path_125" data-name="Path 125" class="cls-3" d="M474.2,239.429c1.023-1.365-.057-5.857-1.876-6.937a9.807,9.807,0,0,0-7.278-.682,45.8,45.8,0,0,1-4.776,1.365,31.086,31.086,0,0,0-3.241.057c-3.07.625-4.151,7.505-3.184,10.178,1.137,3.241,3.469,6.994,6.255,8.586,2.729,1.535,8.586-.057,11.486-1.023,2.559-.853,6.368-7.847,6.2-10.69-.114-2.786-2.218-3.582-4.037-5Z" transform="translate(-195.641 -99.839)"/>
  <path id="Path_126" data-name="Path 126" class="cls-3" d="M426.5,301.529c1.023-1.365-.057-5.857-1.876-6.937a9.807,9.807,0,0,0-7.278-.682,45.785,45.785,0,0,1-4.776,1.365,31.11,31.11,0,0,0-3.241.057c-3.07.625-4.151,7.505-3.184,10.178,1.137,3.241,3.468,6.994,6.255,8.586,2.729,1.535,8.586-.057,11.486-1.023,2.559-.853,6.368-7.847,6.2-10.69-.114-2.786-2.218-3.582-4.037-5Z" transform="translate(-175.063 -126.629)"/>
  <path id="Path_127" data-name="Path 127" class="cls-2" d="M200.894,66.224c.739-1.535-1.08-5.743-3.07-6.482a9.529,9.529,0,0,0-7.278.625,39.709,39.709,0,0,1-4.435,2.161c-1.08.341-2.047.171-3.184.625-2.9,1.137-2.786,8.131-1.365,10.576,1.706,2.957,6.88,3.184,9.95,4.264,2.957,1.023,6.766-2.616,9.439-4.094,2.388-1.308,4.321-4.662,3.7-7.449-.625-2.729-2.843-3.184-4.833-4.264Z" transform="translate(-77.907 -25.569)"/>
  <path id="Path_128" data-name="Path 128" class="cls-2" d="M207.187,57.894c-.455,1.649,2.161,5.459,4.264,5.8a9.86,9.86,0,0,0,7.051-2.047,40.635,40.635,0,0,1,3.98-3.014c1.023-.512,1.99-.569,3.014-1.194,2.616-1.706,1.137-8.529-.739-10.69-2.274-2.559-7.392-1.763-10.576-2.274-3.07-.455-6.084,3.866-8.472,5.857-2.1,1.763-3.355,5.4-2.161,8.017,1.137,2.559,3.412,2.559,5.572,3.241Z" transform="translate(-87.612 -19.172)"/>
  <path id="Path_129" data-name="Path 129" class="cls-1" d="M277.829,60.895,280.047,36.9,275.1,60.44Z" transform="translate(-118.68 -15.919)"/>
  <path id="Path_130" data-name="Path 130" class="cls-2" d="M275.861,19.538c-1.365-1.023-5.857-.057-6.937,1.763a9.573,9.573,0,0,0-.8,7.278c.341,1.592,1.137,3.184,1.251,4.776a30.808,30.808,0,0,0,0,3.241c.569,3.07,7.449,4.264,10.121,3.355,3.241-1.08,4.435-6.141,6.084-8.927,1.592-2.672-1.308-7.107-2.218-10.064-.8-2.616-3.753-5.117-6.6-5.06-2.786.114-3.639,2.161-5.117,3.98Z" transform="translate(-115.517 -6.859)"/>
  <path id="Path_131" data-name="Path 131" class="cls-2" d="M100.96,89.036c2.843-1.365,1.365-5.288.171-7.221-2.047.739-4.094-.739-6.141-1.08a14.805,14.805,0,0,0-7.562.284c-3.241,1.194-3.753,2.559-4.606,5.572-.625,2.218-2.274,3.127-3.355,5.174-1.365,2.559.057,3.639.739,6.2.625,2.445.4,3.866,3.07,4.833,2.388.853,6.368,2.388,8.472.853,1.08-.8.91-3.3,1.876-3.866.91-.569,1.933-.171,2.9-.227,8.245-.739,15.3-20.356-.8-17.854Z" transform="translate(-34.036 -34.678)"/>
  <path id="Path_132" data-name="Path 132" class="cls-3" d="M223.046,69.331c-2.729,1.592-.91,5.345.4,7.221,1.99-.853,4.151.4,6.2.569a14.547,14.547,0,0,0,7.505-.91c3.127-1.478,3.525-2.9,4.151-5.913.455-2.274,1.99-3.355,2.957-5.4,1.194-2.672-.341-3.639-1.251-6.141-.853-2.388-.682-3.81-3.412-4.549-2.445-.682-6.539-1.876-8.529-.171-.967.853-.625,3.355-1.535,4.037-.853.625-1.933.341-2.843.455-8.188,1.421-13.589,21.55,2.218,17.74Z" transform="translate(-94.373 -22.934)"/>
  <path id="Path_133" data-name="Path 133" class="cls-3" d="M66.465,95.274c-.625-2.559-4.037-2.1-5.8-2.274-1.194-.114-2.1-.739-3.355-.455-1.82.455-1.194,1.137-2.218,2.217-1.08,1.137-.91.91-2.672.739a5.82,5.82,0,0,0-3.412.227c-1.99.967-2.729,4.094-1.876,6.084-1.08,1.819-4.833,5.686-2.5,8.074,1.023,1.023,1.933.284,2.616,1.478.625,1.08.114,2.616,1.137,3.923,1.876.284,3.014-.682,4.662,0s2.161,2.445,4.208,2.616c2.5.227,3.355-2.047,5.345-2.331,2.161-.4,4.037.739,6.084-1.421,1.08-1.137.91-3.07,1.819-4.378,1.308-1.933,3.355-2.388,4.094-4.719,1.308-4.208-2.786-7.107-5.8-8.87Z" transform="translate(-18.931 -39.892)"/>
  <path id="Path_134" data-name="Path 134" class="cls-1" d="M422.883,143.917l-3.127,4.776-1.706,3.241-8.7,5.231.739,1.08,20.924-11.031L414.979,130.1,399.4,140.221l2.559,1.706L416.4,131.806l1.535,3.81-15.182,8.756.114,1.592,16.944-9.552,7.847,10.519-7.676,4.492.682-2.729Z" transform="translate(-172.303 -56.126)"/>
  <path id="Path_135" data-name="Path 135" class="cls-1" d="M453.921,223l-15.238,3.127L438,223.8Z" transform="translate(-188.956 -96.203)"/>
  <path id="Path_136" data-name="Path 136" class="cls-1" d="M455.148,183.6l-23.938,9.552-.91-2.616Z" transform="translate(-185.634 -79.206)"/>
  <path id="Path_137" data-name="Path 137" class="cls-2" d="M459.9,214.391c-.512,3.582,4.151,4.606,6.709,4.719.625-2.388,3.3-3.412,4.89-5.117,1.933-2.047,3.866-4.606,4.492-7.335.853-3.81-.057-5.174-2.331-7.847-1.706-1.99-1.535-4.151-2.729-6.425-1.535-2.9-3.469-2.217-6.311-3.184-2.672-.91-3.923-2.047-6.482-.171-2.331,1.763-6.255,4.492-6.141,7.449.057,1.478,2.5,2.9,2.5,4.208,0,1.194-1.08,1.933-1.592,2.9-4.492,8.245,9.609,27.236,17.4,10.519Z" transform="translate(-194.994 -81.112)"/>
  <path id="Path_138" data-name="Path 138" class="cls-3" d="M464.679,182.707c2.9,1.023,4.662-2.5,5.97-4.151.91-1.08,2.1-1.592,2.616-3.014.739-2.1-.341-1.933-.682-3.525-.4-1.763-.284-1.478,1.023-3.07.91-1.137,1.763-1.876,1.99-3.468.341-2.559-2.217-5.288-4.719-5.743-1.023-2.217-2.388-8.358-6.2-7.676-1.649.284-1.535,1.706-3.07,1.592-1.421-.114-2.616-1.535-4.492-1.421-1.535,1.649-1.308,3.355-3.014,4.492s-3.753.512-5.231,2.388c-1.82,2.274-.227,4.606-1.137,6.709-1.023,2.331-3.355,3.468-2.559,6.823.455,1.763,2.388,2.9,3.07,4.549,1.023,2.559.171,4.833,1.933,7.051,3.241,3.98,8.7,1.876,12.339.114Z" transform="translate(-191.982 -65.577)"/>
  <path id="Path_139" data-name="Path 139" class="cls-2" d="M10.935,305.072c.227.967.8,3.98,1.763,4.606,1.137.8,1.08-.057,2.161-.114a6.582,6.582,0,0,1,3.3,1.023c1.763.853,2.047.739,3.81-.227a16.117,16.117,0,0,1,2.218-1.137,18.017,18.017,0,0,0,2.161-1.308c1.933-.967,4.435-.853,5.97-2.331,2.161-2.047,4.208-5.515,3.412-8.358-.682-2.5-1.933-4.378-4.606-4.378-2.729,0-3.127.8-3.98-1.99-.853-2.9-2.786-5.174-6.311-3.923-1.706.625-1.876,2.672-3.355,3.639-1.08.682-2.445.114-3.639,1.137-1.308,1.137-1.08,2.843-1.99,4.151-1.08,1.478-2.1,2.274-2.9,3.98-.853,1.876-1.535,5.572,1.421,6.027Z" transform="translate(-3.543 -123.633)"/>
  <path id="Path_140" data-name="Path 140" class="cls-1" d="M274.329,454.313l-3.3-4.662-2.331-2.843L267.108,436.8l-1.308.284,2.388,23.54,21.891-8.472L286.554,433.9l-2.559,1.763,3.98,17.172h-4.094l-2.445-17.342-1.478-.512,2.445,19.275L269.78,457.61l-1.365-8.813,2.331,1.649Z" transform="translate(-114.668 -187.187)"/>
  <path id="Path_141" data-name="Path 141" class="cls-1" d="M215.1,459.183l3.127-17.683,2.843.227Z" transform="translate(-92.795 -190.466)"/>
  <path id="Path_142" data-name="Path 142" class="cls-1" d="M241.3,470.257l.057-25.757,2.729.114Z" transform="translate(-104.098 -191.76)"/>
  <path id="Path_143" data-name="Path 143" class="cls-1" d="M233.9,461.414l.114-25.814,2.729.171Z" transform="translate(-100.906 -187.92)"/>
  <path id="Path_144" data-name="Path 144" class="cls-1" d="M415.35,367.933l-15.75-7.449,2.218-3.184Z" transform="translate(-172.39 -154.141)"/>
  <path id="Path_145" data-name="Path 145" class="cls-1" d="M413.9,338.686l16.148,7.96,1.365-1.876-6.482-3.525,9.666-.8-.682-1.422-9.609.625-9.211-3.753Z" transform="translate(-178.559 -144.909)"/>
  <path id="Path_146" data-name="Path 146" class="cls-1" d="M328.746,452.6l-7.79-23.2-2.957.227Z" transform="translate(-137.187 -185.246)"/>
  <path id="Path_147" data-name="Path 147" class="cls-4" d="M456.705,344.738c.455,2.786,1.535,3.3.512,5.231-1.251,2.388-.967,4.776-4.037,6.255-1.933.967-1.99.228-3.7.057-1.478-.171-2.559.4-4.151.739-4.378.853-4.947-.569-6.425-4.094-.569-1.365-.114-.853-1.421-1.82-1.251-.853-1.876-.682-2.331-2.1-.625-1.819.4-5,1.478-6.482.91-1.251,2.388-2.331,3.184-3.582.739-1.194.91-1.933,2.274-2.616a15.871,15.871,0,0,1,9.268-1.194C457.785,336.152,456.705,344.738,456.705,344.738Z" transform="translate(-187.646 -144.479)"/>
  <path id="Path_148" data-name="Path 148" class="cls-4" d="M343.005,456.538c.455,2.786,1.535,3.3.512,5.231-1.251,2.388-.967,4.776-4.037,6.254-1.933.967-1.99.227-3.7.057-1.478-.171-2.559.4-4.151.739-4.378.853-4.947-.569-6.425-4.094-.569-1.365-.114-.853-1.421-1.819-1.251-.853-1.876-.682-2.331-2.1-.625-1.819.4-5,1.478-6.482.91-1.251,2.388-2.331,3.184-3.582.739-1.194.91-1.933,2.274-2.615a15.87,15.87,0,0,1,9.268-1.194C344.142,447.952,343.005,456.538,343.005,456.538Z" transform="translate(-138.595 -192.71)"/>
  <path id="Path_149" data-name="Path 149" class="cls-4" d="M176.536,413.639c-2.843.171-3.582-.739-5.174.682-2.047,1.763-4.435,2.047-5.174,5.345-.455,2.1.227,1.99.8,3.639.512,1.365.171,2.559.227,4.208.227,4.492,1.706,4.662,5.458,5.345,1.478.284.853-.114,2.1,1.023,1.08,1.023,1.08,1.649,2.616,1.82,1.933.171,4.776-1.535,5.97-2.9,1.023-1.194,1.706-2.843,2.729-3.923.967-1.023,1.706-1.308,2.047-2.843a16.082,16.082,0,0,0-.967-9.268C184.61,410.625,176.536,413.639,176.536,413.639Z" transform="translate(-71.63 -178.127)"/>
  <path id="Path_150" data-name="Path 150" class="cls-3" d="M379.936,371.634c-2.843.171-3.582-.739-5.174.682-2.047,1.763-4.435,2.047-5.174,5.345-.455,2.1.227,1.99.8,3.639.512,1.365.171,2.559.227,4.208.227,4.492,1.706,4.662,5.458,5.345,1.478.284.853-.114,2.1.967,1.08,1.023,1.08,1.649,2.616,1.819,1.933.171,4.776-1.535,5.97-2.9,1.023-1.194,1.706-2.843,2.729-3.923.967-1.023,1.706-1.308,2.047-2.843a16.082,16.082,0,0,0-.967-9.268C388.01,368.62,379.936,371.634,379.936,371.634Z" transform="translate(-159.378 -160.003)"/>
  <path id="Path_151" data-name="Path 151" class="cls-3" d="M377.716,397.321c-2.161-1.876-1.99-3.014-4.151-3.184-2.672-.171-4.549-1.649-7.449.114-1.819,1.137-1.251,1.592-1.99,3.127-.625,1.308-1.706,1.933-2.786,3.127-3.014,3.3-2.1,4.492.114,7.619.853,1.251.682.512.739,2.161.057,1.478-.4,1.933.569,3.127,1.251,1.478,4.492,2.331,6.311,2.161,1.592-.114,3.241-.8,4.719-.853,1.421,0,2.1.284,3.468-.569a16.1,16.1,0,0,0,5.857-7.221C385.563,400.9,377.716,397.321,377.716,397.321Z" transform="translate(-155.055 -169.713)"/>
  <path id="Path_152" data-name="Path 152" class="cls-3" d="M257.305,480.358c1.876.227,4.435-2.729,5.913-3.525,3.184-1.706,3.923.171,5.515,2.672,1.763,2.843,3.753,3.468,5.174.114,2.843.853,5.8,2.729,8.813,1.763a8.355,8.355,0,0,0,4.89-3.639c1.137-1.99,2.388-1.023,5.345-2.331,2.274-1.023,4.435,0,6.482-1.194,2.957-1.763,6.709-8.415,6.311-11.827-.512-4.094-4.037-9.439-7.449-7.562-3.923,2.161-2.274-1.422-4.947-1.933-1.194-.227-5.4,5.117-6.539,5.515-1.876.569-1.365.512-2.729-.682-1.023-.967-1.023-1.933-2.559-2.331-1.422-.341-4.094.4-4.947,1.478-2.274-.91-2.445-2.786-5-2.5-3.07.4-5.4,3.753-6.2,6.539-2.559-.967-4.606-1.194-6.994.114-2.274,1.308-2.217,2.559-3.468,4.719-.967,1.706-3.07,2.729-3.7,4.606-.853,2.445.8,2.843,1.99,4.549C254.292,476.378,254.86,480.017,257.305,480.358Z" transform="translate(-108.277 -195.378)"/>
  <path id="Path_153" data-name="Path 153" class="cls-3" d="M194.651,461.89c-2.729-1.592-5.117,1.876-6.027,3.923,1.706,1.251,1.706,3.81,2.559,5.686a14.706,14.706,0,0,0,4.549,6.084c2.843,1.99,4.264,1.649,7.221.682,2.161-.739,3.866.114,6.141-.114,2.9-.284,2.957-2.1,4.719-4.094,1.649-1.876,2.957-2.5,2.274-5.231-.625-2.445-1.592-6.6-4.094-7.505-1.251-.455-1.421-.227-2.445-.682-.967-.4-1.251-1.478-1.819-2.217-5.288-6.368-27.236.227-16.091,12.054Z" transform="translate(-81.33 -196.698)"/>
  <path id="Path_154" data-name="Path 154" class="cls-3" d="M215.727,478.63c-1.763,1.99.512,4.492,1.365,6.084.569,1.08.569,2.161,1.535,3.013,1.421,1.251,1.649.341,3.07.569,1.535.227,1.251.227,2.1,1.763a6.069,6.069,0,0,0,2.1,2.672c1.933,1.08,4.947-.057,6.084-1.876,2.1-.114,7.392.8,8.074-2.5.284-1.421-.853-1.763-.284-2.957.569-1.137,2.1-1.592,2.559-3.127-.8-1.706-2.217-2.1-2.616-3.866-.341-1.706.8-3.127-.227-4.947-1.194-2.161-3.582-1.649-4.947-3.07-1.535-1.592-1.649-3.81-4.606-4.208-1.535-.228-3.07.967-4.606.967-2.331,0-3.866-1.421-6.255-.739-4.208,1.308-4.264,6.311-4.037,9.837Z" transform="translate(-92.74 -201.1)"/>
  <path id="Path_155" data-name="Path 155" class="cls-3" d="M419.15,365.977c-.967.682-4.037,2.616-4.321,3.98-.4,1.592.569,1.137,1.023,2.331a7.423,7.423,0,0,1,.284,4.037c-.171,2.274.114,2.616,1.933,4.094a17.491,17.491,0,0,1,2.218,1.99c.853.967,1.592,1.08,2.388,1.82,1.876,1.763,2.843,4.492,5.174,5.572,3.184,1.478,7.9,2.274,10.747.114,2.5-1.876,3.98-4.037,2.786-6.994-1.194-3.014-2.218-3.127.455-5.231,2.843-2.217,4.492-5.345,1.535-8.7-1.421-1.649-3.753-.91-5.458-2.161-1.194-.91-1.194-2.672-2.843-3.525-1.82-.967-3.639.057-5.459-.4-2.1-.512-3.411-1.308-5.629-1.421-2.445-.171-6.88.739-6.027,4.208Z" transform="translate(-178.919 -155.938)"/>
  <path id="Path_156" data-name="Path 156" class="cls-5" d="M291.3,189.071c-8.415,0-15.921,2.218-22.4,7.847-3.525,3.07-5.06,4.321-9.78,3.81-3.355-.4-6.368-1.535-9.894-1.535-4.321,0-8.472.569-12.737.739-5.458.171-9.609-3.923-14.158-6.482-6.311-3.525-12.623-4.662-19.616-5.913-3.98-.739-9.95-1.649-13.248-4.321-4.492-3.639-5.743-10.8-7.221-16.034-1.933-6.88-4.208-14.272-8.7-20.015-7.676-9.837-18.593-16.83-26.269-26.781-5.686-7.392-5.061-18.2-3.412-26.838.284-1.535.569-3.3,1.023-4.947-.171.057-.284.171-.455.227A110.6,110.6,0,0,0,125.1,102.076c1.649,2.218,1.421,4.947,2.616,7.733,1.365,3.3,3.412,5.572,5.743,8.074,5.515,5.97,9.552,13.248,15.523,18.991,5.629,5.4,12.4,9.041,16.432,16.432,4.606,8.529,9.609,16.83,10.348,26.5.569,7.847-2.161,13.362-5.743,20.128-3.412,6.425-8.756,10.917-12,17.285-2.161,4.151-3.184,8.188-4.549,12.737-1.308,4.094-1.023,8.188-1.99,12.4-2.1,9.041-7.164,17-9.95,25.928A23.929,23.929,0,0,1,136.7,277.2c2.047,1.308,4.094,2.559,6.255,3.753.114-.569.284-1.137.455-1.763,1.763-5.8,4.833-8.245,8.87-12.509,4.833-5.061,7.562-12.793,8.927-19.617.455-2.388,0-4.833.455-7.221.455-2.5,1.933-4.606,3.127-6.937,2.729-5.174,4.776-9.95,8.188-14.5,4.549-6.027,11.2-11.656,18.707-13.646,5.857-1.535,10.235.227,15.978.967,5.288.739,9.666.114,14.783,2.1,3.3,1.308,6.766,2.957,10.292,3.468,9.268,1.365,24.279,5.913,32.751.171,3.582-2.445,5.572-5.913,9.439-8.017,5.572-2.957,10.178-4.947,16.489-5.288a47.494,47.494,0,0,1,14.044,1.08c.455-3.468.739-6.937.853-10.462-1.478.171-2.957.227-4.264.4C298.294,189.7,294.939,189.071,291.3,189.071Z" transform="translate(-53.969 -38.223)"/>
  <g id="Group_5" data-name="Group 5" transform="translate(88.746 37.46)">
    <path id="Path_157" data-name="Path 157" class="cls-2" d="M165.527,107.741c7.676,9.894,18.593,16.944,26.269,26.781,4.492,5.686,6.766,13.135,8.7,20.015,1.478,5.231,2.729,12.4,7.221,16.034,3.3,2.672,9.211,3.582,13.248,4.321,6.994,1.251,13.305,2.388,19.616,5.913,4.549,2.559,8.7,6.653,14.158,6.482,4.264-.171,8.472-.682,12.736-.739,3.525,0,6.539,1.137,9.894,1.535,4.719.512,6.2-.739,9.78-3.81,6.539-5.629,13.987-7.847,22.4-7.847,3.582,0,6.994.625,10.633.171.455-.057,1.023-.114,1.535-.171A109.688,109.688,0,0,0,162.741,77.605c-.227,1.137-.455,2.274-.625,3.3C160.467,89.6,159.785,100.406,165.527,107.741Z" transform="translate(-158.181 -65.882)"/>
    <path id="Path_158" data-name="Path 158" class="cls-4" d="M157.228,92.6c-1.649,8.643-2.274,19.446,3.412,26.838,7.676,9.894,18.593,16.944,26.269,26.781,4.492,5.686,6.766,13.135,8.7,20.015,1.478,5.231,2.729,12.4,7.221,16.034,3.3,2.672,9.211,3.582,13.248,4.321,6.994,1.251,13.305,2.388,19.617,5.913,4.549,2.559,8.7,6.653,14.158,6.482,4.264-.171,8.472-.682,12.736-.739,3.525,0,6.539,1.137,9.894,1.535,4.719.512,6.2-.739,9.78-3.81,6.539-5.629,13.987-7.847,22.4-7.847,3.582,0,6.994.625,10.633.171,1.308-.171,2.786-.227,4.264-.4,0-.853.057-1.706.057-2.616-.512.057-1.08.114-1.535.171-3.639.455-6.994-.171-10.633-.171-8.415,0-15.921,2.218-22.4,7.847-3.525,3.07-5.06,4.321-9.78,3.81-3.355-.4-6.368-1.535-9.893-1.535-4.264,0-8.358.569-12.566.682h-.171c-5.459.171-9.609-3.923-14.158-6.482-6.311-3.525-12.623-4.662-19.616-5.913-3.98-.739-9.95-1.649-13.248-4.321-4.492-3.639-5.743-10.8-7.221-16.034-1.933-6.88-4.208-14.272-8.7-20.015-7.676-9.837-18.593-16.83-26.269-26.781-5.686-7.392-5.06-18.2-3.412-26.838.171-1.023.4-2.161.625-3.3-.8.4-1.592.8-2.388,1.251C157.8,89.357,157.512,91.062,157.228,92.6Z" transform="translate(-156.079 -74.734)"/>
  </g>
  <g id="Group_6" data-name="Group 6" transform="translate(88.928 159.931)">
    <path id="Path_159" data-name="Path 159" class="cls-3" d="M167.658,353.33c4.833-5.06,7.562-12.793,8.927-19.617.455-2.388,0-4.833.455-7.221.455-2.5,1.933-4.606,3.127-6.937,2.729-5.174,4.776-9.95,8.188-14.5,4.549-6.027,11.2-11.656,18.707-13.646,5.857-1.535,10.235.227,15.978.967,5.288.739,9.723.114,14.783,2.1,3.3,1.308,6.766,2.957,10.292,3.468,9.268,1.365,24.279,5.913,32.751.171,3.582-2.445,5.572-5.913,9.439-8.017,5.572-2.957,10.178-4.947,16.489-5.288a54.478,54.478,0,0,1,11.656.569c.171-.967.284-1.99.455-2.957a49.476,49.476,0,0,0-14.044-1.08c-6.311.284-10.917,2.274-16.489,5.288-3.923,2.1-5.913,5.572-9.439,8.017-8.472,5.743-23.54,1.137-32.751-.171-3.525-.512-6.994-2.161-10.292-3.468-5.06-1.99-9.439-1.365-14.783-2.1-5.743-.8-10.121-2.559-15.978-.967-7.449,1.99-14.1,7.619-18.707,13.646-3.412,4.549-5.515,9.325-8.188,14.5-1.194,2.331-2.672,4.435-3.127,6.937-.455,2.388,0,4.833-.455,7.221-1.308,6.823-4.094,14.613-8.927,19.617-4.094,4.264-7.107,6.709-8.87,12.509-.171.569-.341,1.194-.455,1.763l2.559,1.365C160.664,359.983,163.678,357.481,167.658,353.33Z" transform="translate(-156.4 -281.275)"/>
    <path id="Path_160" data-name="Path 160" class="cls-4" d="M264.014,367.653a109.523,109.523,0,0,0,56.234-79.546,54.473,54.473,0,0,0-11.656-.569c-6.311.284-10.917,2.274-16.489,5.288-3.923,2.1-5.913,5.572-9.439,8.017-8.472,5.743-23.54,1.137-32.751-.171-3.525-.512-6.994-2.161-10.292-3.468-5.06-1.99-9.439-1.365-14.783-2.1-5.743-.8-10.121-2.559-15.978-.967-7.449,1.99-14.1,7.619-18.707,13.646-3.412,4.549-5.515,9.325-8.188,14.5-1.194,2.331-2.672,4.435-3.127,6.937-.455,2.388,0,4.833-.455,7.221-1.308,6.823-4.094,14.613-8.927,19.617-3.98,4.151-6.994,6.653-8.756,12.168A109.89,109.89,0,0,0,264.014,367.653Z" transform="translate(-158.255 -283.942)"/>
  </g>
  <g id="Group_7" data-name="Group 7" transform="translate(32.805 63.967)">
    <path id="Path_161" data-name="Path 161" class="cls-2" d="M163.027,163.73c-3.98-7.392-10.8-11.031-16.432-16.432-5.97-5.743-10.007-13.078-15.523-18.991-2.331-2.5-4.378-4.776-5.743-8.074-1.194-2.786-.91-5.515-2.616-7.733-1.023.853-1.99,1.763-3.014,2.672.569,1.763.739,3.7,1.535,5.686,1.365,3.3,3.412,5.572,5.743,8.074,5.515,5.97,9.552,13.248,15.523,18.991,5.629,5.4,12.4,9.041,16.432,16.432,4.606,8.529,9.609,16.83,10.348,26.5.569,7.847-2.161,13.362-5.743,20.128-3.412,6.425-8.756,10.917-12,17.285-2.161,4.151-3.184,8.188-4.549,12.737-1.308,4.094-1.023,8.188-1.99,12.4-2.1,9.041-7.164,17-9.95,25.928a22.922,22.922,0,0,1-3.184,6.709c.8.569,1.592,1.08,2.388,1.592a24.835,24.835,0,0,0,4.833-8.927c2.729-8.87,7.847-16.83,9.95-25.928.967-4.208.682-8.245,1.99-12.4,1.421-4.492,2.445-8.586,4.549-12.736,3.241-6.368,8.586-10.86,12-17.285,3.582-6.766,6.311-12.282,5.743-20.128C172.693,180.561,167.632,172.2,163.027,163.73Z" transform="translate(-84.444 -112.5)"/>
    <path id="Path_162" data-name="Path 162" class="cls-3" d="M118.253,255.325c.967-4.208.682-8.245,1.99-12.4,1.421-4.492,2.445-8.586,4.549-12.736,3.241-6.368,8.586-10.86,12-17.285,3.582-6.766,6.311-12.282,5.743-20.128-.682-9.666-5.743-18.024-10.348-26.5-3.98-7.392-10.8-11.031-16.432-16.432-5.97-5.743-10.007-13.078-15.523-18.991-2.331-2.5-4.378-4.776-5.743-8.074-.853-1.99-.967-3.923-1.535-5.686a109.717,109.717,0,0,0,12.111,170.806,22.924,22.924,0,0,0,3.184-6.709C111.089,272.326,116.206,264.366,118.253,255.325Z" transform="translate(-57.695 -114.485)"/>
  </g>
  <path id="Path_163" data-name="Path 163" class="cls-2" d="M444.274,124.508c-.455-1.819-4.208-3.127-5.515-4.208-2.786-2.331-1.308-3.753.455-6.141,1.99-2.729,1.819-4.833-1.82-4.89-.284-2.957.4-6.482-1.706-8.927-1.365-1.592-3.525-1.933-5.231-3.241-5.4-4.037-13.362-15.523-21.209-11.144-3.639,2.047-3.7,8.586-.625,11.031,3.468,2.843-.455,2.672.057,5.345.227,1.194,3.184,1.876,3.98,2.843,1.251,1.535,1.023,1.08.341,2.786-.512,1.365-1.421,1.706-1.251,3.3a6,6,0,0,0,3.3,4.094c.057,2.445-1.706,3.355-.455,5.629,1.535,2.729,5.515,3.639,8.472,3.355.057,2.729.625,4.776,2.729,6.482,2.047,1.649,3.241,1.137,5.686,1.478,1.933.227,3.753,1.82,5.686,1.706,2.616-.114,2.388-1.82,3.525-3.525C441.716,128.829,444.9,126.9,444.274,124.508Z" transform="translate(-175.329 -36.66)"/>
  <path id="Path_164" data-name="Path 164" class="cls-3" d="M284.311,198.441c-.967-2.957-4.89-2.218-6.994-2.274-1.421-.057-2.559-.739-4.037-.284-2.161.682-1.365,1.478-2.445,2.729-1.137,1.365-1.023,1.137-3.07,1.08-1.478-.057-2.616-.284-3.98.512-2.274,1.308-2.9,5.06-1.763,7.335-1.137,2.217-5.288,7.051-2.388,9.723,1.251,1.137,2.331.227,3.184,1.535.8,1.251.341,3.07,1.592,4.549,2.274.227,3.469-1.023,5.458-.341s2.729,2.672,5.174,2.729c2.957.057,3.81-2.616,6.141-3.184,2.559-.625,4.833.569,7.051-2.1,1.194-1.421.853-3.7,1.82-5.288,1.422-2.388,3.81-3.07,4.492-5.913,1.251-5.06-3.81-8.188-7.505-10.064Z" transform="translate(-111.572 -84.438)"/>
  <path id="Path_165" data-name="Path 165" class="cls-2" d="M153.564,244.779c-.455,3.014,3.525,3.923,5.743,3.98.512-1.99,2.786-2.9,4.151-4.378a14.346,14.346,0,0,0,3.81-6.255c.739-3.241-.057-4.435-1.99-6.709-1.421-1.706-1.308-3.525-2.331-5.458-1.308-2.5-2.957-1.876-5.4-2.729-2.274-.8-3.355-1.763-5.515-.114-1.99,1.478-5.345,3.866-5.231,6.368.057,1.251,2.161,2.5,2.161,3.582,0,1.023-.91,1.649-1.365,2.445-3.81,7.051,8.188,23.2,14.84,8.984Z" transform="translate(-63.328 -95.865)"/>
  <path id="Path_166" data-name="Path 166" class="cls-3" d="M210.031,106.488c-1.592,1.251-6.6,4.89-6.994,7.278-.455,2.729,1.08,1.933,2.047,3.866,1.194,2.445,1.023,4.037.967,6.937-.057,3.923.455,4.435,3.753,6.766a28.22,28.22,0,0,1,4.037,3.184c1.592,1.535,2.843,1.649,4.264,2.786,3.468,2.786,5.4,7.392,9.5,9.041,5.686,2.217,13.817,3.014,18.422-.967,4.037-3.468,6.425-7.335,4.037-12.282-2.388-5-4.151-5.117.284-9.041,4.606-4.094,7.107-9.666,1.763-15.011-2.672-2.672-6.6-1.137-9.609-3.07-2.161-1.421-2.331-4.492-5.231-5.743-3.184-1.421-6.2.512-9.439-.057-3.7-.682-6.027-1.876-9.837-1.876-4.208,0-11.656,1.99-9.837,7.847Z" transform="translate(-87.556 -42.407)"/>
  <path id="Path_167" data-name="Path 167" class="cls-4" d="M310.1,187.252c.682,2.786,1.706,3.184.853,5.174-1.08,2.445-.682,4.833-3.639,6.482-1.876,1.08-1.99.341-3.7.284-1.478-.057-2.5.569-4.094.967-4.321,1.08-4.947-.284-6.709-3.7-.682-1.365-.171-.853-1.535-1.706-1.308-.739-1.933-.569-2.5-1.99-.739-1.819.057-5.06,1.08-6.539.853-1.308,2.218-2.445,2.957-3.753.682-1.251.739-1.99,2.1-2.786a15.632,15.632,0,0,1,9.154-1.763C310.672,178.667,310.1,187.252,310.1,187.252Z" transform="translate(-124.457 -76.718)"/>
  <path id="Path_168" data-name="Path 168" class="cls-4" d="M366.252,111.673c-1.365,1.137-1.251,1.876-2.616,1.933-1.649.114-2.843.967-4.606-.171-1.08-.739-.739-.967-1.194-1.99-.341-.853-1.023-1.194-1.706-1.99-1.82-2.1-1.251-2.786.171-4.719.569-.739.455-.341.512-1.365.057-.91-.227-1.194.4-1.933a5.442,5.442,0,0,1,3.923-1.251c.967.114,1.99.512,2.9.569.853.057,1.308-.114,2.1.4a10.348,10.348,0,0,1,3.582,4.549C371.2,109.569,366.252,111.673,366.252,111.673Z" transform="translate(-153.143 -43.214)"/>
  <path id="Path_169" data-name="Path 169" class="cls-2" d="M98.274,316.356c.284,1.251,1.023,5.174,2.331,6.084,1.478,1.023,1.421-.114,2.786-.114,1.763,0,2.616.512,4.264,1.308,2.274,1.08,2.729.967,4.947-.341a15.926,15.926,0,0,1,2.957-1.478,23.908,23.908,0,0,0,2.786-1.706c2.559-1.251,5.8-1.08,7.847-3.07,2.843-2.672,5.515-7.221,4.492-10.974-.91-3.3-2.5-5.743-6.027-5.686-3.582,0-4.094,1.023-5.174-2.616-1.137-3.81-3.7-6.766-8.245-5.117-2.274.8-2.5,3.525-4.435,4.719-1.421.91-3.241.114-4.776,1.478-1.706,1.478-1.421,3.753-2.616,5.459-1.365,1.933-2.729,3.013-3.753,5.231-1.137,2.445-2.047,7.335,1.876,7.9Z" transform="translate(-40.846 -126.047)"/>
  <path id="Path_170" data-name="Path 170" class="cls-3" d="M227.016,369.421c-2.161-1.876-1.99-3.014-4.151-3.184-2.672-.171-4.549-1.649-7.449.114-1.82,1.137-1.251,1.592-1.99,3.127-.625,1.308-1.706,1.933-2.786,3.127-3.014,3.3-2.1,4.492.114,7.619.853,1.251.682.512.739,2.161.057,1.478-.4,1.933.569,3.127,1.251,1.478,4.492,2.331,6.311,2.161,1.592-.114,3.241-.8,4.719-.853,1.421,0,2.1.284,3.468-.569a16.1,16.1,0,0,0,5.857-7.221C234.863,372.946,227.016,369.421,227.016,369.421Z" transform="translate(-90.042 -157.677)"/>
  <path id="Path_171" data-name="Path 171" class="cls-4" d="M114.9,377.351c.4,2.218,1.194,2.616.4,4.094-.967,1.876-.8,3.753-3.184,4.947-1.535.739-1.592.171-2.9.057a11.449,11.449,0,0,0-3.241.569c-3.468.682-3.866-.455-5.06-3.241-.455-1.08-.057-.682-1.137-1.422-.967-.682-1.478-.569-1.876-1.649-.455-1.422.341-3.98,1.137-5.117.739-1.023,1.876-1.82,2.5-2.786.625-.91.682-1.535,1.82-2.047a12.948,12.948,0,0,1,7.278-.967C115.81,370.642,114.9,377.351,114.9,377.351Z" transform="translate(-42.177 -159.466)"/>
  <path id="Path_172" data-name="Path 172" class="cls-3" d="M261.629,337.863c1.365,1.137,4.833.057,6.425.227,3.3.284,2.957,2.1,2.957,4.833,0,3.07,1.194,4.606,3.98,2.672,1.82,2.047,3.184,5.06,6.027,5.743,1.876.455,3.639-.455,5.629-.4,6.2.114,18.309,4.435,21.834-3.07,1.649-3.468-1.82-8.358-5.458-8.586-4.151-.227-1.08-2.217-2.9-3.98-.8-.8-3.412.284-4.492,0-1.763-.455-1.365-.284-1.763-1.876-.341-1.308.171-2.047-.853-3.127a5.7,5.7,0,0,0-4.606-1.308c-1.365-1.819-.512-3.411-2.672-4.435-2.615-1.251-6.084.227-8.131,2.047-1.535-1.99-3.014-3.241-5.515-3.412-2.445-.114-3.014.91-5.06,1.933-1.592.853-3.753.625-5.174,1.763-1.876,1.478-.8,2.616-.739,4.549C261.231,333.258,259.923,336.385,261.629,337.863Z" transform="translate(-112.487 -139.424)"/>
  <path id="Path_173" data-name="Path 173" class="cls-2" d="M330.372,367.192c-2.047,2.957,1.649,5.97,3.923,7.221,1.592-1.82,4.492-1.592,6.653-2.388,2.672-.967,5.515-2.388,7.278-4.549,2.5-3.013,2.274-4.662,1.422-8.074-.625-2.5.455-4.378.4-6.994-.057-3.3-2.1-3.525-4.208-5.686-1.99-2.047-2.559-3.582-5.743-3.014-2.843.512-7.619,1.194-8.87,3.923-.625,1.365.967,3.753.341,4.89-.569,1.08-1.819,1.251-2.672,1.876-7.733,5.4-3.582,28.657,10.86,17.172Z" transform="translate(-140.234 -148.227)"/>
  <path id="Path_174" data-name="Path 174" class="cls-2" d="M84.8,163.591c-.512,3.582,4.151,4.606,6.709,4.719.625-2.388,3.3-3.412,4.89-5.117,1.933-2.047,3.866-4.606,4.492-7.335.853-3.81-.057-5.174-2.331-7.847-1.706-1.99-1.535-4.151-2.729-6.425-1.535-2.9-3.468-2.218-6.311-3.184-2.672-.91-3.923-2.047-6.482-.171-2.331,1.763-6.255,4.492-6.141,7.449.057,1.478,2.5,2.9,2.5,4.208,0,1.194-1.08,1.933-1.592,2.9-4.492,8.245,9.609,27.236,17.4,10.519Z" transform="translate(-33.173 -59.197)"/>
  <path id="Path_175" data-name="Path 175" class="cls-4" d="M290.343,121.157c-.284,3.582,4.435,4.321,6.994,4.264.455-2.388,3.07-3.639,4.549-5.4a16.71,16.71,0,0,0,3.98-7.619c.625-3.866-.4-5.174-2.843-7.676-1.82-1.876-1.82-4.037-3.184-6.255-1.706-2.786-3.639-1.99-6.482-2.786-2.729-.739-4.037-1.82-6.482.284-2.218,1.876-5.97,4.89-5.686,7.847.171,1.478,2.729,2.729,2.786,4.037.057,1.194-.967,1.99-1.365,2.957-3.98,8.529,11.315,26.553,18.024,9.382Z" transform="translate(-121.3 -40.871)"/>
  <path id="Path_176" data-name="Path 176" class="cls-3" d="M363.006,224.32c1.023-1.592-.455-6.482-2.559-7.505a10.735,10.735,0,0,0-8.074-.227,46.771,46.771,0,0,1-5.174,1.819c-1.251.227-2.274-.057-3.582.284-3.3.91-4.094,8.586-2.843,11.486,1.478,3.468,4.321,7.505,7.505,9.041,3.07,1.535,9.5-.625,12.623-1.933,2.786-1.137,6.482-9.1,6.141-12.225-.341-3.07-2.729-3.81-4.833-5.288Z" transform="translate(-146.77 -93.146)"/>
  <path id="Path_177" data-name="Path 177" class="cls-3" d="M178.267,83.32c1.023-1.535-.341-6.027-2.331-6.994a11.287,11.287,0,0,0-7.96-.057,42.18,42.18,0,0,1-5.117,1.82c-1.251.227-2.217,0-3.525.341-3.3.91-4.208,8.131-3.014,10.8,1.421,3.241,4.094,6.937,7.221,8.3,3.014,1.365,9.325-.8,12.509-2.1,2.786-1.137,6.6-8.643,6.311-11.6-.284-2.9-2.616-3.525-4.606-4.833Z" transform="translate(-67.22 -32.602)"/>
  <path id="Path_178" data-name="Path 178" class="cls-4" d="M123.472,188.943c.114-3.81-4.719-4.549-7.107-5.515-1.592-.625-2.672-1.876-4.492-1.933-2.729-.114-2.161,1.137-3.923,2.161-1.933,1.137-1.649.853-4.037-.057-1.706-.625-2.9-1.365-4.833-1.023-3.127.569-5.459,4.606-5.06,7.733-2.218,2.047-9.041,5.913-6.766,10.235.967,1.819,2.559,1.194,3.014,3.07.4,1.763-.853,3.7,0,5.857,2.5,1.194,4.435.284,6.482,1.876,1.99,1.592,2.047,4.208,4.833,5.288,3.355,1.308,5.515-1.478,8.358-1.137,3.184.341,5.345,2.672,9.041.455,1.933-1.194,2.5-3.923,4.264-5.345,2.616-2.161,5.686-1.99,7.619-4.947,3.525-5.288-1.023-10.974-4.549-14.67Z" transform="translate(-37.444 -78.295)"/>
  <path id="Path_179" data-name="Path 179" class="cls-3" d="M351.09,164.915c.853-1.706,1.649-1.763,1.365-3.184-.341-1.763.341-3.241-1.308-4.776-1.023-.967-1.251-.569-2.331-.8a8.826,8.826,0,0,1-2.5-1.308c-2.616-1.421-3.241-.625-4.89,1.308-.682.739-.227.512-1.251.853-.967.284-1.308.057-1.933.853a5.987,5.987,0,0,0-.341,4.435c.341.967,1.023,1.933,1.308,2.9.227.91.171,1.421.91,2.1a10.934,10.934,0,0,0,5.629,2.616C350.066,170.544,351.09,164.915,351.09,164.915Z" transform="translate(-145.657 -66.491)"/>
  <path id="Path_180" data-name="Path 180" class="cls-3" d="M273.16,404.165c.625-.853-.057-3.7-1.194-4.378a5.907,5.907,0,0,0-4.606-.4,29.9,29.9,0,0,1-3.014.853,12.318,12.318,0,0,0-2.047.057c-1.933.4-2.615,4.776-2.047,6.425.739,2.047,2.218,4.435,3.98,5.458,1.706.967,5.458-.057,7.278-.625,1.649-.569,4.037-4.947,3.923-6.766-.114-1.763-1.421-2.274-2.559-3.184Z" transform="translate(-112.191 -172.178)"/>
  <path id="Path_181" data-name="Path 181" class="cls-3" d="M389.322,326.81c1.194-1.308-.4-3.07-1.365-3.81-.91.8-2.331.455-3.411.682a8.393,8.393,0,0,0-3.923,1.706c-1.422,1.308-1.478,2.1-1.308,3.866.114,1.308-.569,2.1-.739,3.412-.227,1.592.8,1.876,1.649,3.127.853,1.137.967,1.933,2.616,1.933,1.421-.057,3.81-.057,4.606-1.251a12.394,12.394,0,0,1,.682-1.251c.341-.455.967-.455,1.478-.739,4.151-2.047,3.355-14.954-4.549-10.348Z" transform="translate(-163.306 -139.344)"/>
  <path id="Path_182" data-name="Path 182" class="cls-3" d="M244.035,435.966c.682-.91-.057-3.98-1.251-4.719a6.488,6.488,0,0,0-4.947-.455,23.034,23.034,0,0,1-3.241.91c-.8.114-1.365-.114-2.218.057-2.047.4-2.843,5.117-2.161,6.937.8,2.161,2.331,4.719,4.264,5.857,1.819,1.023,5.8-.057,7.79-.682,1.763-.569,4.321-5.288,4.208-7.278-.114-1.876-1.535-2.445-2.729-3.412Z" transform="translate(-99.214 -185.728)"/>
  <path id="Path_183" data-name="Path 183" class="cls-3" d="M406.779,195.807c2.9,1.023,4.662-2.5,5.97-4.151.91-1.08,2.1-1.592,2.616-3.014.739-2.1-.341-1.933-.682-3.525-.4-1.763-.284-1.478,1.023-3.07.91-1.137,1.763-1.876,1.99-3.468.341-2.559-2.218-5.288-4.719-5.743-1.023-2.217-2.388-8.358-6.2-7.676-1.649.284-1.535,1.706-3.07,1.592-1.422-.114-2.616-1.535-4.492-1.421-1.535,1.649-1.308,3.355-3.013,4.492s-3.753.512-5.231,2.388c-1.82,2.274-.227,4.606-1.137,6.709-1.023,2.331-3.355,3.468-2.559,6.823.455,1.763,2.388,2.9,3.07,4.549,1.023,2.559.171,4.833,1.933,7.051,3.241,3.98,8.7,1.876,12.339.114Z" transform="translate(-167.003 -71.228)"/>
  <path id="Path_184" data-name="Path 184" class="cls-2" d="M224.666,334.73c.171-2.9-3.639-3.355-5.743-3.3-.284,1.933-2.388,3.014-3.525,4.435a13.848,13.848,0,0,0-3.07,6.2c-.4,3.127.455,4.151,2.445,6.141,1.478,1.478,1.535,3.184,2.672,4.947,1.421,2.218,2.957,1.535,5.288,2.1,2.218.569,3.3,1.365,5.231-.341,1.763-1.592,4.719-4.094,4.378-6.425-.171-1.194-2.218-2.161-2.331-3.184-.057-.967.682-1.649,1.08-2.445,3.014-6.937-9.723-21.152-14.727-7.164Z" transform="translate(-91.558 -142.261)"/>
  <g id="Group_8" data-name="Group 8" transform="translate(84.493 11.031)">
    <path id="Path_185" data-name="Path 185" class="cls-3" d="M188.63,29.051c-1.308,1.535-3.923,1.478-3.923,1.478s-.569-2.559.739-4.151c1.308-1.535,3.923-1.478,3.923-1.478S189.881,27.515,188.63,29.051Z" transform="translate(-164.124 -21.773)"/>
    <path id="Path_186" data-name="Path 186" class="cls-3" d="M161.263,22.243c.625,1.933-.853,4.094-.853,4.094s-2.5-.91-3.127-2.843.853-4.094.853-4.094S160.638,20.31,161.263,22.243Z" transform="translate(-152.279 -19.4)"/>
    <path id="Path_187" data-name="Path 187" class="cls-3" d="M161.968,47.347c-1.99-.171-3.468-2.331-3.468-2.331s1.763-1.933,3.81-1.819c1.99.171,3.468,2.331,3.468,2.331S164.015,47.518,161.968,47.347Z" transform="translate(-152.871 -29.664)"/>
    <path id="Path_188" data-name="Path 188" class="cls-3" d="M156.268,58.447c-1.99-.171-3.468-2.331-3.468-2.331s1.763-1.933,3.81-1.82c1.99.171,3.468,2.331,3.468,2.331S158.258,58.618,156.268,58.447Z" transform="translate(-150.412 -34.452)"/>
    <path id="Path_189" data-name="Path 189" class="cls-3" d="M175.421,46.157c.569-1.933,3.014-2.957,3.014-2.957s1.535,2.161,1.023,4.094c-.569,1.933-3.014,2.957-3.014,2.957S174.909,48.09,175.421,46.157Z" transform="translate(-160.126 -29.667)"/>
    <path id="Path_190" data-name="Path 190" class="cls-3" d="M168.821,33.657c.569-1.933,3.014-2.957,3.014-2.957s1.535,2.161,1.023,4.094c-.569,1.933-3.014,2.957-3.014,2.957S168.309,35.59,168.821,33.657Z" transform="translate(-157.278 -24.275)"/>
    <path id="Path_191" data-name="Path 191" class="cls-3" d="M152.751,31.892c1.82.853,2.445,3.412,2.445,3.412s-2.331,1.251-4.151.4S148.6,32.29,148.6,32.29,150.874,31.1,152.751,31.892Z" transform="translate(-148.6 -24.671)"/>
  </g>
  <g id="Group_9" data-name="Group 9" transform="translate(152.212)">
    <path id="Path_192" data-name="Path 192" class="cls-3" d="M280.45,32.73c-1.535,1.308-4.151.739-4.151.739s-.057-2.616,1.478-3.923,4.151-.739,4.151-.739S281.986,31.479,280.45,32.73Z" transform="translate(-271.41 -12.374)"/>
    <path id="Path_193" data-name="Path 193" class="cls-3" d="M307.884,16.937c-.569,1.933-3.014,2.9-3.014,2.9s-1.535-2.1-.967-4.037,3.014-2.9,3.014-2.9S308.453,15,307.884,16.937Z" transform="translate(-283.264 -5.565)"/>
    <path id="Path_194" data-name="Path 194" class="cls-3" d="M295.192,37.151c-.8-1.82.4-4.151.4-4.151s2.559.625,3.412,2.5c.8,1.82-.4,4.151-.4,4.151S295.988,39.027,295.192,37.151Z" transform="translate(-279.442 -14.236)"/>
    <path id="Path_195" data-name="Path 195" class="cls-3" d="M284.192,44.648C282.6,43.4,282.6,40.781,282.6,40.781s2.559-.625,4.151.625,1.592,3.866,1.592,3.866S285.784,45.9,284.192,44.648Z" transform="translate(-274.128 -17.526)"/>
    <path id="Path_196" data-name="Path 196" class="cls-3" d="M312.078,43.446c1.535-1.308,4.151-.739,4.151-.739s.057,2.616-1.478,3.923-4.151.739-4.151.739S310.543,44.754,312.078,43.446Z" transform="translate(-286.207 -18.371)"/>
    <path id="Path_197" data-name="Path 197" class="cls-3" d="M307.078,31.446c1.535-1.308,4.151-.739,4.151-.739s.057,2.616-1.478,3.923-4.151.739-4.151.739S305.543,32.754,307.078,31.446Z" transform="translate(-284.05 -13.194)"/>
    <path id="Path_198" data-name="Path 198" class="cls-3" d="M269.178,47.746c1.535-1.308,4.151-.739,4.151-.739s.057,2.616-1.478,3.923-4.151.739-4.151.739S267.643,49.054,269.178,47.746Z" transform="translate(-267.699 -20.226)"/>
    <path id="Path_199" data-name="Path 199" class="cls-3" d="M283.913,2.047c1.023,1.706.114,4.208.114,4.208s-2.616-.341-3.7-2.047C279.308,2.5,280.217,0,280.217,0S282.833.341,283.913,2.047Z" transform="translate(-272.939)"/>
  </g>
  <g id="Group_10" data-name="Group 10" transform="translate(206.38 22.996)">
    <path id="Path_200" data-name="Path 200" class="cls-2" d="M380.351,44.512c-1.649,1.194-4.151.4-4.151.4s.114-2.616,1.763-3.81,4.151-.4,4.151-.4S382,43.318,380.351,44.512Z" transform="translate(-368.675 -40.443)"/>
    <path id="Path_201" data-name="Path 201" class="cls-2" d="M416.98,72.561c-1.99.341-3.98-1.421-3.98-1.421s1.251-2.331,3.241-2.672,3.98,1.421,3.98,1.421S418.97,72.219,416.98,72.561Z" transform="translate(-384.551 -52.514)"/>
    <path id="Path_202" data-name="Path 202" class="cls-2" d="M378.646,65.978c1.308-1.535,3.923-1.478,3.923-1.478s.569,2.559-.739,4.151c-1.308,1.535-3.923,1.478-3.923,1.478S377.338,67.513,378.646,65.978Z" transform="translate(-369.358 -50.821)"/>
    <path id="Path_203" data-name="Path 203" class="cls-2" d="M363.253,63.227c.4-1.99,2.786-3.127,2.786-3.127s1.706,2.047,1.251,3.98c-.4,1.99-2.786,3.127-2.786,3.127S362.855,65.16,363.253,63.227Z" transform="translate(-363.063 -48.923)"/>
    <path id="Path_204" data-name="Path 204" class="cls-2" d="M374.551,79.492c1.819.8,2.5,3.355,2.5,3.355s-2.331,1.251-4.151.4c-1.82-.8-2.5-3.355-2.5-3.355S372.731,78.7,374.551,79.492Z" transform="translate(-366.173 -57.171)"/>
    <path id="Path_205" data-name="Path 205" class="cls-2" d="M391.651,74.692c1.82.8,2.5,3.355,2.5,3.355s-2.331,1.251-4.151.4c-1.82-.8-2.5-3.355-2.5-3.355S389.831,73.9,391.651,74.692Z" transform="translate(-373.55 -55.1)"/>
    <path id="Path_206" data-name="Path 206" class="cls-2" d="M367.022,49.663c1.308,1.535.853,4.094.853,4.094s-2.616.171-3.98-1.365c-1.308-1.535-.853-4.094-.853-4.094S365.714,48.185,367.022,49.663Z" transform="translate(-362.965 -43.831)"/>
    <path id="Path_207" data-name="Path 207" class="cls-2" d="M395.624,62.408c-1.08,1.706-3.7,1.99-3.7,1.99s-.91-2.5.171-4.208,3.7-1.99,3.7-1.99S396.648,60.7,395.624,62.408Z" transform="translate(-375.306 -48.103)"/>
  </g>
  <g id="Group_11" data-name="Group 11" transform="translate(152.225 10.746)">
    <path id="Path_208" data-name="Path 208" class="cls-4" d="M323.107,36.051c1.251,1.592,3.923,1.535,3.923,1.535s.625-2.559-.625-4.151-3.923-1.535-3.923-1.535S321.856,34.458,323.107,36.051Z" transform="translate(-291.278 -24.508)"/>
    <path id="Path_209" data-name="Path 209" class="cls-4" d="M348.659,26.729c-.682,1.876.739,4.151.739,4.151s2.5-.853,3.184-2.729S351.844,24,351.844,24,349.342,24.8,348.659,26.729Z" transform="translate(-302.559 -21.1)"/>
    <path id="Path_210" data-name="Path 210" class="cls-4" d="M345.353,51.747c1.99-.114,3.525-2.274,3.525-2.274s-1.763-1.99-3.753-1.876-3.525,2.274-3.525,2.274S343.306,51.861,345.353,51.747Z" transform="translate(-299.593 -31.278)"/>
    <path id="Path_211" data-name="Path 211" class="cls-4" d="M348.053,67.647c1.99-.114,3.525-2.274,3.525-2.274s-1.763-1.99-3.753-1.876-3.525,2.274-3.525,2.274S346.006,67.761,348.053,67.647Z" transform="translate(-300.758 -38.137)"/>
    <path id="Path_212" data-name="Path 212" class="cls-4" d="M334.16,50.214C333.648,48.28,331.2,47.2,331.2,47.2s-1.592,2.1-1.08,4.037,2.957,3.014,2.957,3.014S334.672,52.2,334.16,50.214Z" transform="translate(-294.598 -31.109)"/>
    <path id="Path_213" data-name="Path 213" class="cls-4" d="M340.96,37.914C340.448,35.98,338,34.9,338,34.9s-1.592,2.1-1.08,4.037,2.957,3.014,2.957,3.014S341.472,39.847,340.96,37.914Z" transform="translate(-297.532 -25.802)"/>
    <path id="Path_214" data-name="Path 214" class="cls-4" d="M390.06,88.114C389.548,86.18,387.1,85.1,387.1,85.1s-1.592,2.1-1.08,4.037,2.957,3.014,2.957,3.014S390.572,90.047,390.06,88.114Z" transform="translate(-318.714 -47.459)"/>
    <path id="Path_215" data-name="Path 215" class="cls-4" d="M271.86,21.914C271.348,19.98,268.9,18.9,268.9,18.9s-1.592,2.1-1.08,4.037,2.957,3.014,2.957,3.014S272.372,23.9,271.86,21.914Z" transform="translate(-267.722 -18.9)"/>
    <path id="Path_216" data-name="Path 216" class="cls-4" d="M358.959,35.3c-1.876.8-2.559,3.355-2.559,3.355s2.331,1.251,4.151.455c1.876-.8,2.559-3.355,2.559-3.355S360.778,34.5,358.959,35.3Z" transform="translate(-305.978 -25.86)"/>
  </g>
  <g id="Group_12" data-name="Group 12" transform="translate(259.893 120.329)">
    <path id="Path_217" data-name="Path 217" class="cls-4" d="M463.1,251.753c-.114-1.99,1.876-3.753,1.876-3.753s2.161,1.535,2.274,3.525-1.876,3.753-1.876,3.753S463.21,253.743,463.1,251.753Z" transform="translate(-459.673 -227.317)"/>
    <path id="Path_218" data-name="Path 218" class="cls-4" d="M486.961,239.037c-1.763-.967-2.161-3.582-2.161-3.582s2.445-1.023,4.208,0c1.763.967,2.161,3.582,2.161,3.582S488.666,240,486.961,239.037Z" transform="translate(-469.038 -221.709)"/>
    <path id="Path_219" data-name="Path 219" class="cls-4" d="M469.592,222.307c1.592-1.251,4.151-.625,4.151-.625s0,2.616-1.592,3.866-4.151.625-4.151.625S468,223.558,469.592,222.307Z" transform="translate(-461.791 -215.896)"/>
    <path id="Path_220" data-name="Path 220" class="cls-4" d="M481.292,212.407c1.592-1.251,4.151-.625,4.151-.625s0,2.616-1.592,3.866-4.151.625-4.151.625S479.7,213.658,481.292,212.407Z" transform="translate(-466.838 -211.625)"/>
    <path id="Path_221" data-name="Path 221" class="cls-4" d="M461.128,230.031c.91,1.82-.227,4.208-.227,4.208s-2.616-.512-3.468-2.331c-.91-1.819.227-4.208.227-4.208S460.219,228.212,461.128,230.031Z" transform="translate(-457.08 -218.56)"/>
    <path id="Path_222" data-name="Path 222" class="cls-4" d="M488.728,263.931c.91,1.819-.227,4.208-.227,4.208s-2.616-.512-3.468-2.331c-.91-1.82.227-4.208.227-4.208S487.875,262.112,488.728,263.931Z" transform="translate(-468.986 -233.185)"/>
    <path id="Path_223" data-name="Path 223" class="cls-4" d="M486.594,227.463c-1.933.625-4.094-.853-4.094-.853s.91-2.5,2.843-3.127,4.094.853,4.094.853S488.527,226.838,486.594,227.463Z" transform="translate(-468.046 -216.674)"/>
  </g>
  <g id="Group_13" data-name="Group 13" transform="translate(232.669 51.662)">
    <path id="Path_224" data-name="Path 224" class="cls-3" d="M418.5,121.186c.625,1.933-.8,4.151-.8,4.151s-2.5-.853-3.127-2.786.8-4.151.8-4.151S417.877,119.31,418.5,121.186Z" transform="translate(-411.452 -102.74)"/>
    <path id="Path_225" data-name="Path 225" class="cls-3" d="M413.351,91.564c1.592,1.194,1.649,3.866,1.649,3.866s-2.559.682-4.151-.512-1.649-3.866-1.649-3.866S411.759,90.37,413.351,91.564Z" transform="translate(-409.2 -90.859)"/>
    <path id="Path_226" data-name="Path 226" class="cls-3" d="M427.153,110.747c-1.99.114-3.753-1.876-3.753-1.876s1.478-2.161,3.525-2.274c1.99-.114,3.753,1.876,3.753,1.876S429.2,110.633,427.153,110.747Z" transform="translate(-415.326 -97.646)"/>
    <path id="Path_227" data-name="Path 227" class="cls-3" d="M430.208,122.756c-1.706,1.023-4.208.114-4.208.114s.341-2.616,2.047-3.639,4.208-.114,4.208-.114S431.913,121.733,430.208,122.756Z" transform="translate(-416.448 -102.889)"/>
    <path id="Path_228" data-name="Path 228" class="cls-3" d="M439.659,95.451c-.682-1.876.739-4.151.739-4.151s2.5.853,3.184,2.786c.682,1.876-.739,4.151-.739,4.151S440.342,97.327,439.659,95.451Z" transform="translate(-422.26 -91.049)"/>
    <path id="Path_229" data-name="Path 229" class="cls-3" d="M426.759,95.851c-.682-1.876.739-4.151.739-4.151s2.5.853,3.184,2.786c.682,1.876-.739,4.151-.739,4.151S427.385,97.727,426.759,95.851Z" transform="translate(-416.695 -91.222)"/>
    <path id="Path_230" data-name="Path 230" class="cls-3" d="M428.659,137.051c-.682-1.876.739-4.151.739-4.151s2.5.853,3.184,2.786c.682,1.876-.739,4.151-.739,4.151S429.285,138.927,428.659,137.051Z" transform="translate(-417.515 -108.996)"/>
    <path id="Path_231" data-name="Path 231" class="cls-3" d="M412.884,104.456c1.99-.4,3.98,1.365,3.98,1.365s-1.194,2.331-3.184,2.729-3.98-1.365-3.98-1.365S410.894,104.854,412.884,104.456Z" transform="translate(-409.416 -96.699)"/>
  </g>
  <g id="Group_14" data-name="Group 14" transform="translate(260.177 91.942)">
    <path id="Path_232" data-name="Path 232" class="cls-2" d="M491.768,173.947c-1.99-.114-3.468-2.331-3.468-2.331s1.763-1.933,3.81-1.82c1.99.114,3.468,2.331,3.468,2.331S493.759,174.061,491.768,173.947Z" transform="translate(-470.833 -165.191)"/>
    <path id="Path_233" data-name="Path 233" class="cls-2" d="M490.561,199.924c-1.763-.967-2.161-3.582-2.161-3.582s2.445-1.023,4.208-.057,2.161,3.582,2.161,3.582S492.323,200.89,490.561,199.924Z" transform="translate(-470.876 -176.441)"/>
    <path id="Path_234" data-name="Path 234" class="cls-2" d="M471.584,181.456c1.99-.4,3.98,1.365,3.98,1.365s-1.194,2.331-3.184,2.729-3.98-1.365-3.98-1.365S469.594,181.854,471.584,181.456Z" transform="translate(-462.248 -170.197)"/>
    <path id="Path_235" data-name="Path 235" class="cls-2" d="M477.535,248.707c1.592-1.251,4.151-.625,4.151-.625s0,2.616-1.535,3.923c-1.592,1.251-4.151.625-4.151.625S476,249.958,477.535,248.707Z" transform="translate(-465.526 -198.898)"/>
    <path id="Path_236" data-name="Path 236" class="cls-2" d="M461.628,188.531c.91,1.82-.227,4.208-.227,4.208s-2.615-.512-3.468-2.331c-.91-1.819.227-4.208.227-4.208S460.718,186.769,461.628,188.531Z" transform="translate(-457.58 -172.269)"/>
    <path id="Path_237" data-name="Path 237" class="cls-2" d="M477.928,195.731c.91,1.819-.227,4.208-.227,4.208s-2.616-.512-3.468-2.331c-.91-1.82.227-4.208.227-4.208S477.075,193.912,477.928,195.731Z" transform="translate(-464.612 -175.376)"/>
    <path id="Path_238" data-name="Path 238" class="cls-2" d="M477.15,165.282c.057,1.99-1.933,3.7-1.933,3.7s-2.1-1.535-2.218-3.582c-.057-1.99,1.933-3.7,1.933-3.7S477.036,163.235,477.15,165.282Z" transform="translate(-464.231 -161.7)"/>
    <path id="Path_239" data-name="Path 239" class="cls-2" d="M486.794,189.563c-1.933.625-4.094-.853-4.094-.853s.91-2.5,2.786-3.127c1.933-.625,4.094.853,4.094.853S488.727,188.938,486.794,189.563Z" transform="translate(-468.417 -171.937)"/>
  </g>
  <g id="Group_15" data-name="Group 15" transform="translate(251.012 60.442)">
    <path id="Path_240" data-name="Path 240" class="cls-4" d="M446.6,126.639c-.057,1.99,1.99,3.7,1.99,3.7s2.1-1.592,2.161-3.639c.057-1.99-1.99-3.7-1.99-3.7S446.6,124.592,446.6,126.639Z" transform="translate(-443.676 -113.504)"/>
    <path id="Path_241" data-name="Path 241" class="cls-4" d="M471.047,136.912c-1.706,1.023-2.047,3.7-2.047,3.7s2.5.91,4.208-.114,2.047-3.7,2.047-3.7S472.81,135.832,471.047,136.912Z" transform="translate(-453.341 -119.285)"/>
    <path id="Path_242" data-name="Path 242" class="cls-4" d="M454.206,153.919c1.592,1.194,4.151.512,4.151.512s-.057-2.616-1.706-3.866c-1.592-1.194-4.151-.512-4.151-.512S452.614,152.725,454.206,153.919Z" transform="translate(-446.223 -125.091)"/>
    <path id="Path_243" data-name="Path 243" class="cls-4" d="M446.206,167.962c1.592,1.194,4.151.512,4.151.512s-.057-2.616-1.706-3.81c-1.592-1.194-4.151-.512-4.151-.512S444.614,166.768,446.206,167.962Z" transform="translate(-442.771 -131.174)"/>
    <path id="Path_244" data-name="Path 244" class="cls-4" d="M445.52,145.108c.853-1.82-.341-4.208-.341-4.208s-2.559.625-3.412,2.445.341,4.208.341,4.208S444.667,146.927,445.52,145.108Z" transform="translate(-441.46 -121.227)"/>
    <path id="Path_245" data-name="Path 245" class="cls-4" d="M458.62,139.908c.853-1.819-.341-4.208-.341-4.208s-2.559.625-3.412,2.445.341,4.208.341,4.208S457.767,141.727,458.62,139.908Z" transform="translate(-447.111 -118.983)"/>
    <path id="Path_246" data-name="Path 246" class="cls-4" d="M464.72,209.808c.853-1.819-.341-4.208-.341-4.208s-2.559.625-3.412,2.445.341,4.208.341,4.208S463.867,211.627,464.72,209.808Z" transform="translate(-449.743 -149.139)"/>
    <path id="Path_247" data-name="Path 247" class="cls-4" d="M453.72,110.508c.853-1.82-.341-4.208-.341-4.208s-2.559.625-3.411,2.445.341,4.208.341,4.208S452.867,112.327,453.72,110.508Z" transform="translate(-444.997 -106.3)"/>
    <path id="Path_248" data-name="Path 248" class="cls-4" d="M474.494,150c-1.933-.569-4.094.967-4.094.967s.967,2.445,2.9,3.014,4.094-.967,4.094-.967S476.427,150.573,474.494,150Z" transform="translate(-453.945 -125.1)"/>
  </g>
  <g id="Group_16" data-name="Group 16" transform="translate(212.586 102.972)">
    <path id="Path_249" data-name="Path 249" class="cls-2" d="M407.968,193.447c-1.99-.114-3.468-2.331-3.468-2.331s1.763-1.933,3.81-1.819c1.99.114,3.468,2.331,3.468,2.331S410.015,193.561,407.968,193.447Z" transform="translate(-387.089 -184.634)"/>
    <path id="Path_250" data-name="Path 250" class="cls-2" d="M406.761,219.324c-1.763-.967-2.161-3.582-2.161-3.582s2.445-1.023,4.208-.057,2.161,3.582,2.161,3.582S408.523,220.29,406.761,219.324Z" transform="translate(-387.133 -195.841)"/>
    <path id="Path_251" data-name="Path 251" class="cls-2" d="M387.784,200.956c1.99-.4,3.98,1.365,3.98,1.365s-1.194,2.331-3.184,2.729-3.98-1.365-3.98-1.365S385.851,201.354,387.784,200.956Z" transform="translate(-378.504 -189.641)"/>
    <path id="Path_252" data-name="Path 252" class="cls-2" d="M377.928,208.031c.91,1.819-.227,4.208-.227,4.208s-2.615-.512-3.468-2.331c-.91-1.82.227-4.208.227-4.208S377.019,206.212,377.928,208.031Z" transform="translate(-373.88 -191.713)"/>
    <path id="Path_253" data-name="Path 253" class="cls-2" d="M394.228,215.231c.91,1.819-.227,4.208-.227,4.208s-2.616-.512-3.468-2.331c-.91-1.82.227-4.208.227-4.208S393.319,213.412,394.228,215.231Z" transform="translate(-380.912 -194.819)"/>
    <path id="Path_254" data-name="Path 254" class="cls-2" d="M393.35,184.682c.057,1.99-1.933,3.7-1.933,3.7s-2.1-1.535-2.218-3.582c-.057-1.99,1.933-3.7,1.933-3.7S393.293,182.692,393.35,184.682Z" transform="translate(-380.488 -181.1)"/>
    <path id="Path_255" data-name="Path 255" class="cls-2" d="M403.094,209.063c-1.933.625-4.094-.853-4.094-.853s.91-2.5,2.786-3.127c1.933-.625,4.094.853,4.094.853S404.97,208.381,403.094,209.063Z" transform="translate(-384.717 -191.38)"/>
  </g>
  <g id="Group_17" data-name="Group 17" transform="translate(131.227 65.843)">
    <path id="Path_256" data-name="Path 256" class="cls-4" d="M234.15,137.551c.739,1.876,3.241,2.672,3.241,2.672s1.365-2.274.625-4.151-3.241-2.672-3.241-2.672S233.468,135.674,234.15,137.551Z" transform="translate(-232.156 -123.393)"/>
    <path id="Path_257" data-name="Path 257" class="cls-4" d="M260.964,137.149c-1.194,1.592-.512,4.151-.512,4.151s2.616-.057,3.866-1.649c1.194-1.592.512-4.151.512-4.151S262.159,135.557,260.964,137.149Z" transform="translate(-243.504 -124.299)"/>
    <path id="Path_258" data-name="Path 258" class="cls-4" d="M250.614,159.96c1.933.512,4.037-1.08,4.037-1.08s-1.023-2.445-3.014-2.957C249.7,155.411,247.6,157,247.6,157S248.623,159.448,250.614,159.96Z" transform="translate(-238.043 -133.066)"/>
    <path id="Path_259" data-name="Path 259" class="cls-4" d="M250.347,145.053c.114-1.99-1.876-3.753-1.876-3.753s-2.161,1.535-2.274,3.525,1.876,3.753,1.876,3.753S250.233,147.1,250.347,145.053Z" transform="translate(-237.435 -126.801)"/>
    <path id="Path_260" data-name="Path 260" class="cls-4" d="M281.747,207.753c.114-1.99-1.876-3.753-1.876-3.753s-2.161,1.535-2.274,3.525,1.876,3.753,1.876,3.753S281.633,209.8,281.747,207.753Z" transform="translate(-250.982 -153.85)"/>
    <path id="Path_261" data-name="Path 261" class="cls-4" d="M234.947,119.553c.114-1.99-1.876-3.753-1.876-3.753s-2.161,1.535-2.274,3.525,1.876,3.753,1.876,3.753S234.833,121.543,234.947,119.553Z" transform="translate(-230.792 -115.8)"/>
    <path id="Path_262" data-name="Path 262" class="cls-4" d="M268.312,148.492c-1.99.171-3.412,2.388-3.412,2.388s1.82,1.933,3.81,1.706c1.99-.171,3.411-2.388,3.411-2.388S270.3,148.321,268.312,148.492Z" transform="translate(-245.506 -129.899)"/>
  </g>
  <g id="Group_18" data-name="Group 18" transform="translate(59.186 169.384)">
    <path id="Path_263" data-name="Path 263" class="cls-4" d="M129.065,299.549c-1.194,1.592-.512,4.151-.512,4.151s2.616-.057,3.866-1.649c1.194-1.592.512-4.151.512-4.151S130.315,297.957,129.065,299.549Z" transform="translate(-114.561 -297.9)"/>
    <path id="Path_264" data-name="Path 264" class="cls-4" d="M118.714,322.36c1.933.512,4.037-1.08,4.037-1.08s-1.023-2.445-3.014-2.957c-1.933-.512-4.037,1.08-4.037,1.08S116.78,321.848,118.714,322.36Z" transform="translate(-109.1 -306.667)"/>
    <path id="Path_265" data-name="Path 265" class="cls-4" d="M116.514,338.36c1.933.512,4.037-1.08,4.037-1.08s-1.023-2.445-3.014-2.957c-1.933-.512-4.037,1.08-4.037,1.08S114.58,337.848,116.514,338.36Z" transform="translate(-108.151 -313.569)"/>
    <path id="Path_266" data-name="Path 266" class="cls-4" d="M108.247,317.153c.114-1.99-1.876-3.753-1.876-3.753s-2.161,1.535-2.274,3.525,1.876,3.753,1.876,3.753S108.133,319.143,108.247,317.153Z" transform="translate(-104.092 -304.587)"/>
    <path id="Path_267" data-name="Path 267" class="cls-4" d="M118.447,307.453c.114-1.99-1.876-3.753-1.876-3.753s-2.161,1.535-2.274,3.525,1.876,3.753,1.876,3.753S118.39,309.5,118.447,307.453Z" transform="translate(-108.492 -300.402)"/>
    <path id="Path_268" data-name="Path 268" class="cls-4" d="M136.412,310.892c-1.99.171-3.412,2.388-3.412,2.388s1.819,1.933,3.81,1.706c1.99-.171,3.412-2.388,3.412-2.388S138.459,310.721,136.412,310.892Z" transform="translate(-116.563 -303.5)"/>
  </g>
  <g id="Group_19" data-name="Group 19" transform="translate(128.102 188.674)">
    <path id="Path_269" data-name="Path 269" class="cls-4" d="M310.994,343.3c-1.933-.569-4.094.967-4.094.967s.967,2.445,2.9,3.014,4.094-.967,4.094-.967S312.927,343.873,310.994,343.3Z" transform="translate(-260.501 -336.723)"/>
    <path id="Path_270" data-name="Path 270" class="cls-4" d="M283.792,344.023c-1.592,1.251-1.592,3.866-1.592,3.866s2.559.625,4.151-.625,1.592-3.866,1.592-3.866S285.384,342.829,283.792,344.023Z" transform="translate(-249.845 -336.759)"/>
    <path id="Path_271" data-name="Path 271" class="cls-4" d="M272.492,332.607c-1.592,1.251-1.592,3.866-1.592,3.866s2.559.625,4.151-.625,1.592-3.866,1.592-3.866S274.084,331.356,272.492,332.607Z" transform="translate(-244.97 -331.825)"/>
    <path id="Path_272" data-name="Path 272" class="cls-4" d="M294.22,337.23c1.535,1.308,4.151.739,4.151.739s.114-2.615-1.422-3.923-4.151-.739-4.151-.739S292.685,335.922,294.22,337.23Z" transform="translate(-254.417 -332.411)"/>
    <path id="Path_273" data-name="Path 273" class="cls-4" d="M295.72,351.23c1.535,1.308,4.151.739,4.151.739s.114-2.616-1.422-3.923-4.151-.739-4.151-.739S294.185,349.922,295.72,351.23Z" transform="translate(-255.064 -338.451)"/>
    <path id="Path_274" data-name="Path 274" class="cls-4" d="M226.72,338.33c1.535,1.308,4.151.739,4.151.739s.114-2.616-1.421-3.923-4.151-.739-4.151-.739S225.185,337.022,226.72,338.33Z" transform="translate(-225.297 -332.886)"/>
    <path id="Path_275" data-name="Path 275" class="cls-4" d="M282.724,364.608c1.08-1.706.171-4.208.171-4.208s-2.616.284-3.7,1.99-.171,4.208-.171,4.208S281.644,366.313,282.724,364.608Z" transform="translate(-248.322 -344.152)"/>
  </g>
  <g id="Group_20" data-name="Group 20" transform="translate(246.562 183.144)">
    <path id="Path_276" data-name="Path 276" class="cls-3" d="M456.8,339.551c-.8-1.876.455-4.151.455-4.151s2.559.682,3.355,2.5c.8,1.876-.455,4.151-.455,4.151S457.595,341.37,456.8,339.551Z" transform="translate(-443.513 -327.838)"/>
    <path id="Path_277" data-name="Path 277" class="cls-3" d="M462.99,370.324c-1.706-1.08-1.99-3.7-1.99-3.7s2.5-.91,4.208.171,1.99,3.7,1.99,3.7S464.7,371.4,462.99,370.324Z" transform="translate(-445.44 -341.155)"/>
    <path id="Path_278" data-name="Path 278" class="cls-3" d="M446.9,352.777c1.99-.284,3.923,1.535,3.923,1.535s-1.308,2.274-3.3,2.559-3.923-1.535-3.923-1.535S444.908,353.061,446.9,352.777Z" transform="translate(-437.933 -335.321)"/>
    <path id="Path_279" data-name="Path 279" class="cls-3" d="M443.763,340.7c1.649-1.194,4.151-.4,4.151-.4s-.114,2.615-1.763,3.81-4.151.4-4.151.4S442.114,341.838,443.763,340.7Z" transform="translate(-437.243 -329.841)"/>
    <path id="Path_280" data-name="Path 280" class="cls-3" d="M437.708,366.9c.8,1.819-.455,4.151-.455,4.151s-2.559-.682-3.355-2.5.455-4.151.455-4.151S436.912,365.082,437.708,366.9Z" transform="translate(-433.634 -340.349)"/>
    <path id="Path_281" data-name="Path 281" class="cls-3" d="M450.608,365.5c.8,1.819-.455,4.151-.455,4.151s-2.559-.682-3.355-2.5.455-4.151.455-4.151S449.812,363.682,450.608,365.5Z" transform="translate(-439.199 -339.745)"/>
    <path id="Path_282" data-name="Path 282" class="cls-3" d="M445.409,324.6c.8,1.82-.455,4.151-.455,4.151s-2.559-.682-3.355-2.5.455-4.151.455-4.151S444.613,322.725,445.409,324.6Z" transform="translate(-436.956 -322.1)"/>
    <path id="Path_283" data-name="Path 283" class="cls-3" d="M461.737,357.9c-1.933.512-4.037-1.023-4.037-1.023s1.023-2.445,2.957-2.957,4.037,1.023,4.037,1.023S463.67,357.332,461.737,357.9Z" transform="translate(-444.016 -335.783)"/>
  </g>
  <g id="Group_21" data-name="Group 21" transform="translate(28.477 213.731)">
    <path id="Path_284" data-name="Path 284" class="cls-2" d="M82.159,408.951c-.682-1.876.739-4.151.739-4.151s2.5.853,3.184,2.729-.739,4.151-.739,4.151S82.842,410.827,82.159,408.951Z" transform="translate(-63.841 -388.364)"/>
    <path id="Path_285" data-name="Path 285" class="cls-2" d="M56.592,414.012c.227-1.99,2.445-3.412,2.445-3.412s1.876,1.82,1.706,3.866c-.227,1.99-2.445,3.412-2.445,3.412S56.421,416,56.592,414.012Z" transform="translate(-52.887 -390.866)"/>
    <path id="Path_286" data-name="Path 286" class="cls-2" d="M66.047,390.02c1.137,1.649.341,4.208.341,4.208s-2.616-.171-3.753-1.819-.341-4.208-.341-4.208S64.91,388.371,66.047,390.02Z" transform="translate(-55.235 -381.202)"/>
    <path id="Path_287" data-name="Path 287" class="cls-2" d="M71.808,376.3c1.763.967,2.218,3.525,2.218,3.525s-2.445,1.08-4.208.114-2.218-3.525-2.218-3.525S70.045,375.328,71.808,376.3Z" transform="translate(-57.64 -375.893)"/>
    <path id="Path_288" data-name="Path 288" class="cls-2" d="M54.33,383.25c-1.308,1.535-3.923,1.478-3.923,1.478s-.569-2.559.739-4.151c1.308-1.535,3.923-1.478,3.923-1.478S55.581,381.715,54.33,383.25Z" transform="translate(-50.17 -377.276)"/>
    <path id="Path_289" data-name="Path 289" class="cls-2" d="M54.13,401.051c-1.308,1.535-3.923,1.478-3.923,1.478s-.569-2.559.739-4.151c1.308-1.535,3.923-1.478,3.923-1.478S55.438,399.515,54.13,401.051Z" transform="translate(-50.084 -384.955)"/>
    <path id="Path_290" data-name="Path 290" class="cls-2" d="M84.108,384.12c-1.82.853-4.208-.341-4.208-.341s.569-2.559,2.388-3.411,4.208.341,4.208.341S85.984,383.267,84.108,384.12Z" transform="translate(-62.947 -377.691)"/>
    <path id="Path_291" data-name="Path 291" class="cls-2" d="M64.382,407.39c-1.365-1.478-.853-4.094-.853-4.094s2.616-.171,3.98,1.365c1.365,1.478.853,4.094.853,4.094S65.746,408.868,64.382,407.39Z" transform="translate(-55.843 -387.712)"/>
  </g>
  <g id="Group_22" data-name="Group 22" transform="translate(213.28 183.541)">
    <path id="Path_292" data-name="Path 292" class="cls-4" d="M447.859,372.523c-1.876.8-2.559,3.3-2.559,3.3s2.274,1.308,4.151.512c1.876-.739,2.559-3.3,2.559-3.3S449.735,371.784,447.859,372.523Z" transform="translate(-405.385 -344.149)"/>
    <path id="Path_293" data-name="Path 293" class="cls-4" d="M449.751,399.3c-1.649-1.194-4.151-.4-4.151-.4s.114,2.616,1.763,3.81,4.151.4,4.151.4S451.4,400.438,449.751,399.3Z" transform="translate(-405.514 -355.518)"/>
    <path id="Path_294" data-name="Path 294" class="cls-4" d="M427.94,389.57c-.455,1.99,1.194,4.037,1.194,4.037s2.388-1.137,2.843-3.07-1.194-4.037-1.194-4.037S428.395,387.58,427.94,389.57Z" transform="translate(-397.861 -350.279)"/>
    <path id="Path_295" data-name="Path 295" class="cls-4" d="M411.84,387.77c-.455,1.933,1.194,4.037,1.194,4.037s2.388-1.137,2.843-3.07-1.194-4.037-1.194-4.037S412.295,385.837,411.84,387.77Z" transform="translate(-390.915 -349.503)"/>
    <path id="Path_296" data-name="Path 296" class="cls-4" d="M430.482,378.95c1.99.057,3.7-1.99,3.7-1.99s-1.592-2.1-3.582-2.161-3.7,1.99-3.7,1.99S428.492,378.893,430.482,378.95Z" transform="translate(-397.447 -345.231)"/>
    <path id="Path_297" data-name="Path 297" class="cls-4" d="M440.482,388.95c1.99.057,3.7-1.99,3.7-1.99s-1.592-2.1-3.582-2.161-3.7,1.99-3.7,1.99S438.435,388.893,440.482,388.95Z" transform="translate(-401.761 -349.545)"/>
    <path id="Path_298" data-name="Path 298" class="cls-4" d="M378.682,422.15c1.99.057,3.7-1.99,3.7-1.99s-1.592-2.1-3.582-2.161-3.7,1.99-3.7,1.99S376.692,422.093,378.682,422.15Z" transform="translate(-375.1 -363.868)"/>
    <path id="Path_299" data-name="Path 299" class="cls-4" d="M474.982,326.95c1.99.057,3.7-1.99,3.7-1.99s-1.592-2.1-3.582-2.161-3.7,1.99-3.7,1.99S472.992,326.893,474.982,326.95Z" transform="translate(-416.644 -322.798)"/>
    <path id="Path_300" data-name="Path 300" class="cls-4" d="M439.972,406.955c-.227-1.99-2.5-3.355-2.5-3.355s-1.876,1.876-1.592,3.867c.227,1.99,2.5,3.355,2.5,3.355S440.2,408.945,439.972,406.955Z" transform="translate(-401.307 -357.656)"/>
  </g>
  <g id="Group_23" data-name="Group 23" transform="translate(107.976 258.347)">
    <path id="Path_301" data-name="Path 301" class="cls-4" d="M193.937,454.44c1.933.455,3.07,2.843,3.07,2.843s-2.047,1.649-4.037,1.194c-1.933-.455-3.07-2.843-3.07-2.843S191.947,453.985,193.937,454.44Z" transform="translate(-189.9 -454.36)"/>
    <path id="Path_302" data-name="Path 302" class="cls-4" d="M201.111,481.553c1.422-1.421,4.037-1.08,4.037-1.08s.284,2.616-1.137,4.037-4.037,1.08-4.037,1.08S199.633,482.975,201.111,481.553Z" transform="translate(-194.231 -465.61)"/>
    <path id="Path_303" data-name="Path 303" class="cls-4" d="M222.195,468.716c.739,1.876-.569,4.151-.569,4.151s-2.559-.739-3.3-2.615.569-4.151.569-4.151S221.456,466.839,222.195,468.716Z" transform="translate(-202.066 -459.425)"/>
    <path id="Path_304" data-name="Path 304" class="cls-4" d="M228.495,482.716c.739,1.876-.569,4.151-.569,4.151s-2.559-.739-3.3-2.615.569-4.151.569-4.151S227.7,480.839,228.495,482.716Z" transform="translate(-204.784 -465.465)"/>
    <path id="Path_305" data-name="Path 305" class="cls-4" d="M215.58,458.7c-1.99.341-3.98-1.365-3.98-1.365s1.251-2.331,3.241-2.672,3.98,1.365,3.98,1.365S217.57,458.362,215.58,458.7Z" transform="translate(-199.262 -454.473)"/>
    <path id="Path_306" data-name="Path 306" class="cls-4" d="M207.28,470.2c-1.99.341-3.98-1.365-3.98-1.365s1.251-2.331,3.241-2.672,3.98,1.365,3.98,1.365S209.27,469.8,207.28,470.2Z" transform="translate(-195.681 -459.434)"/>
    <path id="Path_307" data-name="Path 307" class="cls-4" d="M212.7,494.4c-.057-1.99,1.933-3.7,1.933-3.7s2.1,1.535,2.217,3.582c.057,1.99-1.933,3.7-1.933,3.7S212.756,496.443,212.7,494.4Z" transform="translate(-199.735 -470.038)"/>
  </g>
  <g id="Group_24" data-name="Group 24" transform="translate(6.539 166.445)">
    <path id="Path_308" data-name="Path 308" class="cls-4" d="M15.537,292.827c1.933.455,3.07,2.843,3.07,2.843s-2.047,1.649-4.037,1.194c-1.933-.455-3.07-2.843-3.07-2.843S13.547,292.316,15.537,292.827Z" transform="translate(-11.5 -292.732)"/>
    <path id="Path_309" data-name="Path 309" class="cls-4" d="M18.02,332.453c1.421-1.422,4.037-1.08,4.037-1.08s.284,2.616-1.137,4.037-4.037,1.08-4.037,1.08S16.6,333.875,18.02,332.453Z" transform="translate(-13.812 -309.386)"/>
    <path id="Path_310" data-name="Path 310" class="cls-4" d="M43.795,307.116c.739,1.876-.569,4.151-.569,4.151s-2.559-.739-3.3-2.616.569-4.151.569-4.151S43.056,305.239,43.795,307.116Z" transform="translate(-23.666 -297.809)"/>
    <path id="Path_311" data-name="Path 311" class="cls-4" d="M117.695,432.316c.739,1.876-.569,4.151-.569,4.151s-2.559-.739-3.3-2.616.569-4.151.569-4.151S116.956,430.439,117.695,432.316Z" transform="translate(-55.547 -351.821)"/>
    <path id="Path_312" data-name="Path 312" class="cls-4" d="M49.995,321.016c.739,1.876-.569,4.151-.569,4.151s-2.559-.739-3.3-2.615.569-4.151.569-4.151S49.256,319.139,49.995,321.016Z" transform="translate(-26.341 -303.805)"/>
    <path id="Path_313" data-name="Path 313" class="cls-4" d="M37.18,297.1c-1.99.341-3.98-1.365-3.98-1.365s1.251-2.331,3.241-2.672,3.98,1.365,3.98,1.365S39.17,296.762,37.18,297.1Z" transform="translate(-20.862 -292.856)"/>
    <path id="Path_314" data-name="Path 314" class="cls-4" d="M28.88,308.5c-1.99.341-3.98-1.365-3.98-1.365s1.251-2.331,3.241-2.672,3.98,1.365,3.98,1.365S30.87,308.162,28.88,308.5Z" transform="translate(-17.281 -297.774)"/>
    <path id="Path_315" data-name="Path 315" class="cls-4" d="M34.3,322.2c-.057-1.99,1.933-3.7,1.933-3.7s2.1,1.535,2.218,3.582c.057,1.99-1.933,3.7-1.933,3.7S34.356,324.243,34.3,322.2Z" transform="translate(-21.335 -303.848)"/>
  </g>
  <g id="Group_25" data-name="Group 25" transform="translate(42.654 37.47)">
    <path id="Path_316" data-name="Path 316" class="cls-4" d="M75.121,117.357c.512-1.933,2.957-2.957,2.957-2.957s1.592,2.1,1.023,4.094c-.512,1.933-2.957,2.957-2.957,2.957S74.609,119.29,75.121,117.357Z" transform="translate(-75.016 -86.823)"/>
    <path id="Path_317" data-name="Path 317" class="cls-4" d="M111.4,69.539c0-1.99,2.1-3.639,2.1-3.639s2.047,1.649,2.047,3.639-2.1,3.639-2.1,3.639S111.4,71.586,111.4,69.539Z" transform="translate(-90.712 -65.9)"/>
    <path id="Path_318" data-name="Path 318" class="cls-4" d="M90.329,91.655c1.876-.682,4.151.682,4.151.682s-.8,2.5-2.729,3.184c-1.876.682-4.151-.682-4.151-.682S88.4,92.394,90.329,91.655Z" transform="translate(-80.445 -76.928)"/>
    <path id="Path_319" data-name="Path 319" class="cls-4" d="M104.429,85.955c1.876-.682,4.151.682,4.151.682s-.8,2.5-2.729,3.184c-1.876.682-4.151-.682-4.151-.682S102.553,86.637,104.429,85.955Z" transform="translate(-86.528 -74.469)"/>
    <path id="Path_320" data-name="Path 320" class="cls-4" d="M80.171,95.8c.284,1.99-1.535,3.923-1.535,3.923s-2.274-1.308-2.559-3.3S77.612,92.5,77.612,92.5,79.887,93.808,80.171,95.8Z" transform="translate(-75.461 -77.375)"/>
    <path id="Path_321" data-name="Path 321" class="cls-4" d="M91.271,104.4c.284,1.99-1.535,3.923-1.535,3.923s-2.274-1.308-2.559-3.3,1.535-3.923,1.535-3.923S90.987,102.408,91.271,104.4Z" transform="translate(-80.25 -81.085)"/>
    <path id="Path_322" data-name="Path 322" class="cls-4" d="M105.139,101.808c-1.99,0-3.639-2.1-3.639-2.1s1.649-2.1,3.639-2.1,3.639,2.1,3.639,2.1S107.186,101.808,105.139,101.808Z" transform="translate(-86.442 -79.576)"/>
  </g>
  <g id="Group_26" data-name="Group 26" transform="translate(56.727 247.395)">
    <path id="Path_323" data-name="Path 323" class="cls-3" d="M331.753,447.847c-1.99.114-3.753-1.876-3.753-1.876s1.535-2.161,3.525-2.274,3.753,1.876,3.753,1.876S333.743,447.79,331.753,447.847Z" transform="translate(-198.228 -438.807)"/>
    <path id="Path_324" data-name="Path 324" class="cls-3" d="M362.851,451.742c-1.592,1.194-4.151.569-4.151.569s.057-2.616,1.649-3.866c1.592-1.194,4.151-.569,4.151-.569S364.5,450.548,362.851,451.742Z" transform="translate(-211.472 -440.541)"/>
    <path id="Path_325" data-name="Path 325" class="cls-3" d="M341.253,459.327c.455-1.99,2.843-3.127,2.843-3.127s1.649,2.047,1.251,4.037c-.455,1.99-2.843,3.127-2.843,3.127S340.855,461.317,341.253,459.327Z" transform="translate(-203.919 -444.203)"/>
    <path id="Path_326" data-name="Path 326" class="cls-3" d="M328.923,458.637C328.411,456.7,330,454.6,330,454.6s2.445,1.023,2.957,3.014c.512,1.933-1.08,4.037-1.08,4.037S329.435,460.57,328.923,458.637Z" transform="translate(-198.583 -443.512)"/>
    <path id="Path_327" data-name="Path 327" class="cls-3" d="M350.725,475.4c1.99-.114,3.753,1.876,3.753,1.876s-1.535,2.161-3.525,2.274-3.753-1.876-3.753-1.876S348.678,475.51,350.725,475.4Z" transform="translate(-206.511 -452.482)"/>
    <path id="Path_328" data-name="Path 328" class="cls-3" d="M353.925,462.8c1.99-.114,3.753,1.876,3.753,1.876s-1.535,2.161-3.525,2.274-3.753-1.876-3.753-1.876S351.878,462.91,353.925,462.8Z" transform="translate(-207.892 -447.046)"/>
    <path id="Path_329" data-name="Path 329" class="cls-3" d="M313.725,453.2c1.99-.114,3.753,1.876,3.753,1.876s-1.535,2.161-3.525,2.274-3.753-1.876-3.753-1.876S311.735,453.31,313.725,453.2Z" transform="translate(-190.549 -442.905)"/>
    <path id="Path_330" data-name="Path 330" class="cls-3" d="M351.28,447.31c-.171,1.99-2.388,3.411-2.388,3.411s-1.933-1.819-1.706-3.81c.171-1.99,2.388-3.412,2.388-3.412S351.507,445.319,351.28,447.31Z" transform="translate(-206.497 -438.724)"/>
    <path id="Path_331" data-name="Path 331" class="cls-3" d="M103.88,438.91c-.171,1.99-2.388,3.411-2.388,3.411s-1.933-1.819-1.706-3.81c.171-1.99,2.388-3.412,2.388-3.412S104.107,436.919,103.88,438.91Z" transform="translate(-99.767 -435.1)"/>
  </g>
  <g id="Group_27" data-name="Group 27" transform="translate(108.345 265.192)">
    <path id="Path_332" data-name="Path 332" class="cls-2" d="M262.638,503.929c.682-1.876,3.184-2.729,3.184-2.729s1.365,2.274.682,4.151-3.184,2.729-3.184,2.729S261.9,505.862,262.638,503.929Z" transform="translate(-221.556 -481.413)"/>
    <path id="Path_333" data-name="Path 333" class="cls-2" d="M237.62,495.853c1.421-1.422,4.037-1.08,4.037-1.08s.284,2.615-1.137,4.037-4.037,1.08-4.037,1.08S236.2,497.275,237.62,495.853Z" transform="translate(-210.354 -478.625)"/>
    <path id="Path_334" data-name="Path 334" class="cls-2" d="M261.043,482.31c-.171,1.99-2.388,3.468-2.388,3.468s-1.933-1.82-1.763-3.81,2.388-3.468,2.388-3.468S261.213,480.319,261.043,482.31Z" transform="translate(-219.165 -471.62)"/>
    <path id="Path_335" data-name="Path 335" class="cls-2" d="M194.615,468.959c.739,1.876-.512,4.151-.512,4.151s-2.559-.739-3.3-2.559c-.8-1.876.512-4.151.512-4.151S193.875,467.139,194.615,468.959Z" transform="translate(-190.548 -466.4)"/>
    <path id="Path_336" data-name="Path 336" class="cls-2" d="M255.28,470.749c-1.99.4-3.98-1.365-3.98-1.365s1.251-2.331,3.184-2.729c1.99-.4,3.98,1.365,3.98,1.365S257.27,470.351,255.28,470.749Z" transform="translate(-216.757 -466.485)"/>
    <path id="Path_337" data-name="Path 337" class="cls-2" d="M243.88,484.349c-1.99.4-3.98-1.365-3.98-1.365s1.251-2.331,3.184-2.729c1.99-.4,3.98,1.365,3.98,1.365S245.813,484.008,243.88,484.349Z" transform="translate(-211.839 -472.352)"/>
    <path id="Path_338" data-name="Path 338" class="cls-2" d="M273.214,491.875c-1.933-.512-3.013-2.9-3.013-2.9s2.1-1.592,4.037-1.137c1.933.512,3.013,2.9,3.013,2.9S275.147,492.387,273.214,491.875Z" transform="translate(-224.91 -475.613)"/>
    <path id="Path_339" data-name="Path 339" class="cls-2" d="M249,494.553c-.057-1.99,1.933-3.753,1.933-3.753s2.161,1.535,2.218,3.582c.057,1.99-1.933,3.753-1.933,3.753S249.113,496.543,249,494.553Z" transform="translate(-215.764 -476.926)"/>
  </g>
  <g id="Group_28" data-name="Group 28" transform="translate(132.539 262.334)">
    <path id="Path_340" data-name="Path 340" class="cls-4" d="M318.794,473.2c-1.933-.569-4.094.91-4.094.91s.967,2.445,2.9,3.07c1.933.569,4.094-.91,4.094-.91S320.727,473.827,318.794,473.2Z" transform="translate(-268.302 -466.42)"/>
    <path id="Path_341" data-name="Path 341" class="cls-4" d="M303.987,493.957c-.512-1.933-2.957-2.957-2.957-2.957s-1.592,2.1-1.023,4.037c.512,1.933,2.957,2.957,2.957,2.957S304.5,495.89,303.987,493.957Z" transform="translate(-261.911 -474.155)"/>
    <path id="Path_342" data-name="Path 342" class="cls-4" d="M291.549,473.644c-1.592,1.251-1.649,3.866-1.649,3.866s2.559.682,4.151-.569,1.649-3.866,1.649-3.866S293.2,472.45,291.549,473.644Z" transform="translate(-257.604 -466.351)"/>
    <path id="Path_343" data-name="Path 343" class="cls-4" d="M280.349,462.128c-1.592,1.251-1.649,3.866-1.649,3.866s2.559.682,4.151-.569,1.649-3.866,1.649-3.866S281.941,460.877,280.349,462.128Z" transform="translate(-252.772 -461.373)"/>
    <path id="Path_344" data-name="Path 344" class="cls-4" d="M302.021,466.905c1.535,1.308,4.094.8,4.094.8s.114-2.616-1.422-3.98c-1.535-1.308-4.094-.8-4.094-.8S300.543,465.6,302.021,466.905Z" transform="translate(-262.219 -462)"/>
    <path id="Path_345" data-name="Path 345" class="cls-4" d="M303.42,480.905c1.535,1.308,4.094.8,4.094.8s.114-2.615-1.421-3.98c-1.535-1.308-4.094-.8-4.094-.8S301.885,479.6,303.42,480.905Z" transform="translate(-262.822 -468.04)"/>
    <path id="Path_346" data-name="Path 346" class="cls-4" d="M234.521,467.405c1.535,1.308,4.094.8,4.094.8s.114-2.615-1.421-3.98c-1.535-1.308-4.094-.8-4.094-.8S233.043,466.1,234.521,467.405Z" transform="translate(-233.1 -462.216)"/>
    <path id="Path_347" data-name="Path 347" class="cls-4" d="M333.02,484.405c1.535,1.308,4.094.8,4.094.8s.114-2.615-1.421-3.98c-1.535-1.308-4.094-.8-4.094-.8S331.485,483.1,333.02,484.405Z" transform="translate(-275.592 -469.55)"/>
    <path id="Path_348" data-name="Path 348" class="cls-4" d="M290.224,494.208c1.08-1.706.171-4.208.171-4.208s-2.616.284-3.7,1.99-.171,4.208-.171,4.208S289.144,495.913,290.224,494.208Z" transform="translate(-255.994 -473.723)"/>
  </g>
  <g id="Group_29" data-name="Group 29" transform="translate(0 106.498)">
    <path id="Path_349" data-name="Path 349" class="cls-3" d="M44.428,210.016c.739-1.876,3.3-2.616,3.3-2.616s1.308,2.274.569,4.151-3.3,2.616-3.3,2.616S43.689,211.892,44.428,210.016Z" transform="translate(-19.069 -195.971)"/>
    <path id="Path_350" data-name="Path 350" class="cls-3" d="M28.041,235.937c-.455-1.99,1.251-4.037,1.251-4.037s2.388,1.137,2.843,3.127-1.251,4.037-1.251,4.037S28.44,237.927,28.041,235.937Z" transform="translate(-12.064 -206.541)"/>
    <path id="Path_351" data-name="Path 351" class="cls-3" d="M4.151,203.544c1.592,1.194,1.649,3.866,1.649,3.866s-2.559.682-4.151-.569C.057,205.648,0,202.976,0,202.976S2.559,202.35,4.151,203.544Z" transform="translate(0 -193.992)"/>
    <path id="Path_352" data-name="Path 352" class="cls-3" d="M34.323,202.467c1.99.341,3.241,2.672,3.241,2.672s-1.933,1.763-3.923,1.421-3.241-2.672-3.241-2.672S32.333,202.126,34.323,202.467Z" transform="translate(-13.115 -193.824)"/>
    <path id="Path_353" data-name="Path 353" class="cls-3" d="M15.295,251.951c-.739,1.876-3.3,2.616-3.3,2.616s-1.308-2.274-.569-4.151,3.3-2.616,3.3-2.616S16.034,250.074,15.295,251.951Z" transform="translate(-4.833 -213.4)"/>
    <path id="Path_354" data-name="Path 354" class="cls-3" d="M21.595,223.951c-.739,1.876-3.3,2.616-3.3,2.616s-1.308-2.274-.569-4.151,3.3-2.616,3.3-2.616S22.334,222.074,21.595,223.951Z" transform="translate(-7.55 -201.321)"/>
    <path id="Path_355" data-name="Path 355" class="cls-3" d="M47.095,191.451c-.739,1.876-3.3,2.616-3.3,2.616s-1.308-2.274-.569-4.151,3.3-2.616,3.3-2.616S47.834,189.574,47.095,191.451Z" transform="translate(-18.551 -187.3)"/>
    <path id="Path_356" data-name="Path 356" class="cls-3" d="M35.5,227.313c-1.763-1.023-2.1-3.639-2.1-3.639s2.445-.967,4.208,0c1.763,1.023,2.1,3.639,2.1,3.639S37.266,228.337,35.5,227.313Z" transform="translate(-14.409 -202.807)"/>
  </g>
  <g id="Group_30" data-name="Group 30" transform="translate(7.847 57.429)">
    <path id="Path_357" data-name="Path 357" class="cls-3" d="M36.025,182.308c1.023-1.763.057-4.208.057-4.208s-2.616.341-3.639,2.1-.057,4.208-.057,4.208S35,184.07,36.025,182.308Z" transform="translate(-21.64 -134.263)"/>
    <path id="Path_358" data-name="Path 358" class="cls-3" d="M17.5,162.647c1.99-.057,3.582-2.217,3.582-2.217s-1.706-2.047-3.7-1.933c-1.99.057-3.582,2.218-3.582,2.218S15.449,162.761,17.5,162.647Z" transform="translate(-13.8 -125.804)"/>
    <path id="Path_359" data-name="Path 359" class="cls-3" d="M41.784,155.1c-.853-1.819-3.412-2.5-3.412-2.5s-1.251,2.331-.4,4.151,3.412,2.5,3.412,2.5S42.58,156.978,41.784,155.1Z" transform="translate(-24.1 -123.262)"/>
    <path id="Path_360" data-name="Path 360" class="cls-3" d="M55.584,146.8c-.853-1.819-3.412-2.5-3.412-2.5s-1.251,2.331-.4,4.151,3.412,2.5,3.412,2.5S56.437,148.678,55.584,146.8Z" transform="translate(-30.054 -119.681)"/>
    <path id="Path_361" data-name="Path 361" class="cls-3" d="M45.306,167.483c-1.649,1.194-1.706,3.81-1.706,3.81s2.559.739,4.151-.455c1.649-1.194,1.706-3.81,1.706-3.81S46.955,166.289,45.306,167.483Z" transform="translate(-26.656 -129.389)"/>
    <path id="Path_362" data-name="Path 362" class="cls-3" d="M31.406,165.583c-1.649,1.194-1.706,3.81-1.706,3.81s2.559.739,4.151-.455c1.649-1.194,1.706-3.81,1.706-3.81S33,164.389,31.406,165.583Z" transform="translate(-20.659 -128.569)"/>
    <path id="Path_363" data-name="Path 363" class="cls-4" d="M60.406,101.683c-1.649,1.194-1.706,3.81-1.706,3.81s2.559.739,4.151-.455c1.649-1.194,1.706-3.81,1.706-3.81S62,100.489,60.406,101.683Z" transform="translate(-33.17 -101.002)"/>
    <path id="Path_364" data-name="Path 364" class="cls-3" d="M21.206,193.6c-1.649,1.194-1.706,3.81-1.706,3.81s2.559.739,4.151-.455c1.649-1.194,1.706-3.81,1.706-3.81S22.855,192.464,21.206,193.6Z" transform="translate(-16.259 -140.666)"/>
    <path id="Path_365" data-name="Path 365" class="cls-3" d="M21.353,149.119c1.421,1.421,4.037,1.137,4.037,1.137s.341-2.616-1.08-4.037-4.037-1.137-4.037-1.137S19.932,147.7,21.353,149.119Z" transform="translate(-16.577 -120.009)"/>
  </g>
  <g id="Group_31" data-name="Group 31" transform="translate(186.897 175.446)">
    <path id="Path_366" data-name="Path 366" class="cls-3" d="M349.551,382.726c1.592-1.194,1.649-3.866,1.649-3.866s-2.559-.682-4.151.569c-1.592,1.194-1.649,3.866-1.649,3.866S347.959,383.976,349.551,382.726Z" transform="translate(-335.905 -338.808)"/>
    <path id="Path_367" data-name="Path 367" class="cls-3" d="M340.772,357.278c1.876.682,4.151-.682,4.151-.682s-.8-2.5-2.672-3.241c-1.876-.682-4.151.682-4.151.682S338.9,356.6,340.772,357.278Z" transform="translate(-332.755 -327.803)"/>
    <path id="Path_368" data-name="Path 368" class="cls-3" d="M365.75,358.982c-.057-1.99-2.161-3.582-2.161-3.582s-2.047,1.706-1.99,3.7,2.161,3.582,2.161,3.582S365.807,361.029,365.75,358.982Z" transform="translate(-342.892 -328.767)"/>
    <path id="Path_369" data-name="Path 369" class="cls-3" d="M381.75,356.682c-.057-1.99-2.161-3.582-2.161-3.582s-2.047,1.706-1.99,3.7,2.161,3.582,2.161,3.582S381.807,358.672,381.75,356.682Z" transform="translate(-349.795 -327.775)"/>
    <path id="Path_370" data-name="Path 370" class="cls-3" d="M351.87,365.34c-1.933.455-3.07,2.9-3.07,2.9s2.047,1.649,4.037,1.194c1.933-.455,3.07-2.9,3.07-2.9S353.8,364.885,351.87,365.34Z" transform="translate(-337.371 -333.021)"/>
    <path id="Path_371" data-name="Path 371" class="cls-3" d="M410.77,308.64c-1.933.455-3.07,2.843-3.07,2.843s2.047,1.649,4.037,1.194c1.933-.455,3.07-2.843,3.07-2.843S412.7,308.185,410.77,308.64Z" transform="translate(-362.781 -308.56)"/>
    <path id="Path_372" data-name="Path 372" class="cls-3" d="M331.77,387.425c-1.933.455-3.07,2.843-3.07,2.843s2.047,1.649,4.037,1.194c1.933-.455,3.07-2.9,3.07-2.9S333.7,386.914,331.77,387.425Z" transform="translate(-328.7 -342.541)"/>
    <path id="Path_373" data-name="Path 373" class="cls-3" d="M349.628,345.451c.739,1.876,3.3,2.616,3.3,2.616s1.308-2.274.569-4.151-3.3-2.615-3.3-2.615S348.889,343.574,349.628,345.451Z" transform="translate(-337.631 -322.684)"/>
  </g>
  <path id="Path_374" data-name="Path 374" class="cls-5" d="M330.478,126.029c-1.194,0-.625,0-1.933.057-3.753.171-8.017.341-10.974-.4-1.763-.455-3.639-1.933-5.515-3.412-.853-.682-1.649-1.308-2.445-1.876-3.127-2.161-5.4-2.388-8.245-2.729-.682-.057-1.365-.171-2.161-.284a18.586,18.586,0,0,1-3.98-1.194A28.594,28.594,0,0,0,291.3,115a23.075,23.075,0,0,0,.227-2.9c.057-3.582-1.251-6.539-2.559-9.382a30.722,30.722,0,0,1-2.1-5.629c-.625-2.9.227-4.833,1.308-7.221a8.79,8.79,0,0,0,1.023-2.445L286.469,86a10.573,10.573,0,0,1-1.08,2.616c-1.137,2.559-2.274,5.174-1.478,9.041a31.411,31.411,0,0,0,2.274,6.255c1.194,2.672,2.388,5.174,2.274,8.074-.171,6.709-3.184,9.95-7.107,14.1-.739.8-1.478,1.592-2.218,2.445a6.224,6.224,0,0,1-.569.625,32.233,32.233,0,0,1-3.639-.625c-3.355-.739-6.823-1.478-10.86,2.047a52.855,52.855,0,0,0-6.368,7.051,47.39,47.39,0,0,1-6.425,6.994c-2.843,2.331-5.97,2.331-9.609,2.331a30.244,30.244,0,0,0-7.051.569c-3.582.853-12.452,7.847-14.613,11.031l1.251,3.525c1.763-2.559,11.258-10.917,14.1-11.6a25.606,25.606,0,0,1,6.311-.512c3.866,0,7.9,0,11.6-3.014a49.582,49.582,0,0,0,6.88-7.392,55.827,55.827,0,0,1,6.027-6.653c2.9-2.5,5-2.047,8.188-1.365.853.171,1.763.4,2.729.512-.284,1.592.455,2.786,1.649,4.321.341.455.8,1.023,1.194,1.649a45.579,45.579,0,0,1,4.321,9.211c.512,1.251,1.023,2.616,1.535,3.866,1.478,3.468,1.763,7.562.8,12.282-.967,4.776-2.957,7.278-5.458,10.519-.625.853-1.308,1.706-2.047,2.672-2.9,3.923-1.82,10.064-.853,15.523a70.289,70.289,0,0,1,.739,8.472h2.957c.455,0-.057-4.662-.057-4.662,0-2.047-.227-1.763-.682-4.321-.853-4.833-1.82-10.348.284-13.191.682-.91,1.308-1.763,1.99-2.559,2.616-3.355,4.89-6.311,6.027-11.77a23.71,23.71,0,0,0-.967-14.1q-.768-1.791-1.535-3.753a49.853,49.853,0,0,0-4.662-9.78,19.249,19.249,0,0,0-1.308-1.82c-1.478-1.876-1.478-1.933.284-3.923q1.109-1.279,2.218-2.388c2.957-3.184,5.629-6.027,6.994-10.235a25.237,25.237,0,0,1,3.582,1.08,20.548,20.548,0,0,0,4.606,1.365c.8.114,1.592.227,2.274.284,2.729.341,4.378.512,6.88,2.218.739.512,1.478,1.08,2.274,1.706,1.99,1.592,4.208,3.355,6.6,3.98a28.139,28.139,0,0,0,6.766.682c1.706,0,3.468-.057,5.06-.171,1.308-.057,2.5-.171,3.582-.171,0,0-.512-.967-.682-1.251A13.422,13.422,0,0,0,330.478,126.029Z" transform="translate(-94.909 -37.101)"/>
  <path id="Path_375" data-name="Path 375" class="cls-5" d="M291.4,365.872s-2.274-1.649-2.616-1.99l-1.251-1.251a14.017,14.017,0,0,0-3.014-2.672c-2.218-1.422-4.435-2.672-6.539-3.866a88.63,88.63,0,0,1-9.837-6.141c-6.2-4.606-13.476-6.937-20.526-9.211-2.161-.682-4.378-1.422-6.482-2.161-.171-2.9-1.649-4.549-3.3-6.255-.284-.284-.512-.569-.8-.91-2.616-2.957-3.582-6.6-4.208-11.144a14.5,14.5,0,0,1,.455-4.947,22.062,22.062,0,0,0,.569-4.833c0-8.017-8.3-13.476-12.85-16.091,0,0-2.957,1.308-3.412,1.478-.4.171,5.459,3.3,5.459,3.3,3.81,2.161,7.562,7.107,7.79,11.429a17.175,17.175,0,0,1-.512,4.094,17.32,17.32,0,0,0-.512,6.027c.625,4.435,1.649,8.984,4.947,12.737.284.341.569.625.853.91,1.819,1.933,2.786,3.014,2.388,5.743-.341,2.445-1.592,4.606-2.9,6.937-.682,1.251-1.422,2.5-1.99,3.81q-.512,1.109-.853,2.047c-1.365,3.241-2.161,5.06-5.174,7.335-1.478,1.08-3.014,2.1-4.606,3.241-4.208,2.843-8.529,5.857-11.77,9.552a38.42,38.42,0,0,0-3.98,5.913c-.625,1.08-.512.91-1.137,1.876l3.127.739c.625-.967.8-1.308,1.365-2.331a23.112,23.112,0,0,1,2.843-4.151c3.014-3.412,7.164-6.255,11.2-9.041,1.592-1.08,3.184-2.218,4.719-3.3,3.753-2.786,4.776-5.231,6.2-8.586.284-.625.569-1.308.853-1.99a35.334,35.334,0,0,1,1.876-3.525,26.4,26.4,0,0,0,3.07-6.823c1.933.682,3.923,1.308,5.913,1.933,6.766,2.161,13.817,4.435,19.616,8.756a95.532,95.532,0,0,0,10.121,6.368c2.1,1.194,4.264,2.445,6.425,3.81a12.7,12.7,0,0,1,2.445,2.218c.455.455.91.967,1.422,1.421s1.933,1.478,1.933,1.478,1.08-.682,1.478-.91A6.7,6.7,0,0,1,291.4,365.872Z" transform="translate(-88.697 -127.006)"/>
  <path id="Path_376" data-name="Path 376" class="cls-5" d="M131.617,250.765c-.682-.057-1.365-.057-1.99-.114a14.453,14.453,0,0,0-7.335,1.535,22.129,22.129,0,0,1-2.331.91c-3.639,1.308-6.823-1.535-10.462-4.776a29.755,29.755,0,0,0-6.766-5,32.178,32.178,0,0,0-8.984-3.014,22.039,22.039,0,0,0-3.866-.057,10.188,10.188,0,0,1-5-.512,24.481,24.481,0,0,1-5.288-4.208c-.512-.512-1.023-.967-1.535-1.421-1.308-1.194-2.616-2.616-4.037-4.037-2.672-2.786-5.4-5.686-8.415-7.562a19.274,19.274,0,0,0-4.435-1.706l-.284,1.535-.284,1.478a13.752,13.752,0,0,1,3.355,1.308c2.672,1.649,5.288,4.435,7.847,7.051,1.365,1.422,2.786,2.9,4.208,4.208.455.455.967.91,1.478,1.365a25.632,25.632,0,0,0,6.084,4.776c2.1,1.023,4.321.91,6.482.8a15.759,15.759,0,0,1,3.3.057c.739.114,1.535.284,2.274.455-1.08,4.208-4.719,6.766-8.529,9.439a43.562,43.562,0,0,0-5.345,4.208,25.12,25.12,0,0,0-2.957,3.639,22,22,0,0,1-2.729,3.355c-5.174,5.117-9.837,7.79-13.021,7.449l.91,3.07c4.947-.227,10.348-4.549,14.272-8.358a30.061,30.061,0,0,0,3.07-3.81,20.241,20.241,0,0,1,2.559-3.184,36.234,36.234,0,0,1,5-3.866c3.866-2.729,8.245-5.8,9.666-10.974,1.023.4,1.99.853,2.957,1.308a28.457,28.457,0,0,1,6.027,4.549c3.127,2.786,6.6,5.913,10.69,5.913a8.276,8.276,0,0,0,2.786-.512c.91-.341,1.763-.682,2.5-1.023a11.337,11.337,0,0,1,5.913-1.308c.625.057,1.308.114,2.047.114,3.355.171,10.064,1.365,12.452,2.786l1.308-2.9C142.193,251.845,135.313,250.935,131.617,250.765Z" transform="translate(-26.143 -95.254)"/>
  <path id="Path_377" data-name="Path 377" class="cls-3" d="M74.381,318.718c-1.535-1.308-1.421-2.161-2.957-2.217-1.933-.114-3.241-1.194-5.288.114-1.251.8-.91,1.137-1.365,2.218-.455.967-1.194,1.365-1.99,2.217-2.1,2.388-1.478,3.184.114,5.4.625.853.512.4.569,1.535.057,1.08-.284,1.365.4,2.218a6.414,6.414,0,0,0,4.492,1.478c1.137-.114,2.274-.569,3.355-.625a3.693,3.693,0,0,0,2.445-.4,11.557,11.557,0,0,0,4.151-5.174C79.953,321.219,74.381,318.718,74.381,318.718Z" transform="translate(-26.505 -136.313)"/>
  <path id="Path_378" data-name="Path 378" class="cls-4" d="M130.605,271.238c.455,2.786,1.535,3.3.512,5.231-1.251,2.388-.967,4.776-4.037,6.255-1.933.967-1.99.227-3.7.057-1.478-.171-2.559.4-4.151.739-4.378.853-4.947-.569-6.425-4.094-.569-1.365-.114-.853-1.421-1.82-1.251-.853-1.876-.682-2.331-2.1-.625-1.82.4-5,1.478-6.482.91-1.251,2.388-2.331,3.184-3.582.739-1.194.91-1.933,2.274-2.616a15.87,15.87,0,0,1,9.268-1.194C131.742,262.709,130.605,271.238,130.605,271.238Z" transform="translate(-46.965 -112.771)"/>
  <path id="Path_379" data-name="Path 379" class="cls-2" d="M97.084,251.44c-1.99-2.047-1.763-3.184-3.923-3.468-2.672-.4-4.435-1.99-7.392-.4-1.876,1.023-1.365,1.478-2.218,3.014-.682,1.251-1.82,1.82-3.014,2.957-3.241,3.07-2.445,4.321-.455,7.619.8,1.308.682.569.625,2.217-.057,1.478-.512,1.933.341,3.127,1.137,1.592,4.321,2.615,6.141,2.615,1.592,0,3.3-.569,4.719-.512s2.1.4,3.468-.341a16.009,16.009,0,0,0,6.368-6.823C104.646,255.534,97.084,251.44,97.084,251.44Z" transform="translate(-33.799 -106.505)"/>
  <g id="Group_32" data-name="Group 32" transform="translate(59.975 109.966)">
    <path id="Path_380" data-name="Path 380" class="cls-2" d="M139.668,205.647c-1.99-.114-3.468-2.331-3.468-2.331s1.763-1.933,3.81-1.82c1.99.114,3.468,2.331,3.468,2.331S141.659,205.818,139.668,205.647Z" transform="translate(-118.733 -196.891)"/>
    <path id="Path_381" data-name="Path 381" class="cls-2" d="M138.461,231.624c-1.763-.967-2.161-3.582-2.161-3.582s2.445-1.023,4.208-.057,2.161,3.582,2.161,3.582S140.223,232.59,138.461,231.624Z" transform="translate(-118.776 -208.141)"/>
    <path id="Path_382" data-name="Path 382" class="cls-2" d="M119.484,213.256c1.99-.4,3.98,1.365,3.98,1.365s-1.194,2.331-3.184,2.729-3.98-1.365-3.98-1.365S117.494,213.6,119.484,213.256Z" transform="translate(-110.148 -201.941)"/>
    <path id="Path_383" data-name="Path 383" class="cls-2" d="M125.435,280.507c1.592-1.251,4.151-.625,4.151-.625s0,2.616-1.535,3.923c-1.592,1.251-4.151.625-4.151.625S123.843,281.758,125.435,280.507Z" transform="translate(-113.426 -230.641)"/>
    <path id="Path_384" data-name="Path 384" class="cls-2" d="M109.528,220.231c.91,1.82-.227,4.208-.227,4.208s-2.616-.512-3.468-2.331c-.91-1.819.227-4.208.227-4.208S108.618,218.469,109.528,220.231Z" transform="translate(-105.48 -203.969)"/>
    <path id="Path_385" data-name="Path 385" class="cls-2" d="M125.828,227.431c.91,1.819-.227,4.208-.227,4.208s-2.616-.512-3.468-2.331c-.91-1.819.227-4.208.227-4.208S124.918,225.669,125.828,227.431Z" transform="translate(-112.512 -207.076)"/>
    <path id="Path_386" data-name="Path 386" class="cls-2" d="M124.95,196.982c.057,1.99-1.933,3.7-1.933,3.7s-2.1-1.535-2.218-3.582c-.057-1.99,1.933-3.7,1.933-3.7S124.893,194.935,124.95,196.982Z" transform="translate(-112.088 -193.4)"/>
    <path id="Path_387" data-name="Path 387" class="cls-2" d="M134.694,221.263c-1.933.625-4.094-.853-4.094-.853s.91-2.5,2.786-3.127c1.933-.625,4.094.853,4.094.853S136.627,220.638,134.694,221.263Z" transform="translate(-116.317 -203.637)"/>
  </g>
  <path id="Path_388" data-name="Path 388" class="cls-4" d="M384.169,389.4c1.478-.625,1.99-.171,2.615-1.365.8-1.478,1.99-2.1,1.876-4.321-.057-1.422-.455-1.251-1.023-2.161a8.694,8.694,0,0,1-.8-2.672c-.853-2.843-1.649-2.672-3.753-2.445-.853.114-.455.227-1.251-.284-.739-.455-.853-.853-1.649-.682-1.023.227-2.274,1.82-2.672,2.957-.341.967-.455,2.161-.8,3.013a3.865,3.865,0,0,0-.625,2.161,12.394,12.394,0,0,0,1.99,5.8C380.417,392.755,384.169,389.4,384.169,389.4Z" transform="translate(-162.247 -161.962)"/>
  <path id="Path_389" data-name="Path 389" class="cls-3" d="M309.216,411.321c-2.161-1.876-1.99-3.013-4.151-3.184-2.672-.171-4.549-1.649-7.449.114-1.82,1.137-1.251,1.592-1.99,3.127-.625,1.308-1.706,1.933-2.786,3.127-3.014,3.3-2.1,4.492.114,7.619.853,1.251.682.512.739,2.161.057,1.478-.4,1.933.569,3.127,1.251,1.478,4.492,2.331,6.311,2.161,1.592-.114,3.241-.8,4.719-.853,1.422,0,2.1.284,3.468-.569a16.1,16.1,0,0,0,5.857-7.221C317.063,414.9,309.216,411.321,309.216,411.321Z" transform="translate(-125.504 -175.752)"/>
  <g id="Group_33" data-name="Group 33" transform="translate(131.417 215.44)">
    <path id="Path_390" data-name="Path 390" class="cls-2" d="M297.185,426.917c.967-1.763,3.582-2.217,3.582-2.217s1.023,2.445.057,4.208-3.582,2.218-3.582,2.218S296.218,428.68,297.185,426.917Z" transform="translate(-259.445 -398.658)"/>
    <path id="Path_391" data-name="Path 391" class="cls-2" d="M273.706,415.283c1.649-1.194,4.151-.455,4.151-.455s-.114,2.615-1.706,3.81c-1.649,1.194-4.151.455-4.151.455S272.057,416.477,273.706,415.283Z" transform="translate(-248.76 -394.302)"/>
    <path id="Path_392" data-name="Path 392" class="cls-2" d="M298.862,405.137c-.455,1.933-2.9,3.07-2.9,3.07s-1.649-2.1-1.137-4.037c.455-1.933,2.9-3.07,2.9-3.07S299.374,403.147,298.862,405.137Z" transform="translate(-258.564 -388.477)"/>
    <path id="Path_393" data-name="Path 393" class="cls-2" d="M235.262,381.914c.455,1.933-1.137,4.037-1.137,4.037s-2.388-1.08-2.9-3.014,1.137-4.037,1.137-4.037S234.807,379.98,235.262,381.914Z" transform="translate(-231.127 -378.9)"/>
    <path id="Path_394" data-name="Path 394" class="cls-2" d="M295.1,392.95c-1.99.057-3.7-1.933-3.7-1.933s1.535-2.161,3.582-2.217c1.99-.057,3.7,1.933,3.7,1.933S297.086,392.893,295.1,392.95Z" transform="translate(-257.129 -383.17)"/>
    <path id="Path_395" data-name="Path 395" class="cls-2" d="M281.8,404.75c-1.99.057-3.7-1.933-3.7-1.933s1.535-2.161,3.582-2.217c1.99-.057,3.7,1.933,3.7,1.933S283.786,404.693,281.8,404.75Z" transform="translate(-251.391 -388.261)"/>
    <path id="Path_396" data-name="Path 396" class="cls-2" d="M309.759,416.415c-1.876-.8-2.559-3.3-2.559-3.3s2.331-1.308,4.151-.512c1.876.8,2.559,3.3,2.559,3.3S311.635,417.211,309.759,416.415Z" transform="translate(-263.945 -393.33)"/>
  </g>
</svg>
