<svg xmlns="http://www.w3.org/2000/svg" viewBox="0 0 426 295">
  <defs>
    <style>
      .cls-1 {
        fill: #2699fb;
        font-size: 14px;
        font-family: Roboto-Light, Roboto;
        font-weight: 300;
      }

      .cls-2 {
        fill: #bce0fd;
      }

      .cls-3 {
        fill: none;
        stroke: #2699fb;
      }
    </style>
  </defs>
  <g id="Group_46" data-name="Group 46" transform="translate(28 -1618)">
    <g id="Categories" transform="translate(8 1357)">
      <text id="SOLUTION" class="cls-1" transform="translate(188 432)"><tspan x="-33.028" y="0">SOLUTION</tspan></text>
      <circle id="Ellipse_49" data-name="Ellipse 49" class="cls-2" cx="32" cy="32" r="32" transform="translate(156 341)"/>
      <text id="PEOPLE" class="cls-1" transform="translate(98 472)"><tspan x="-24.917" y="0">PEOPLE</tspan></text>
      <circle id="Ellipse_50" data-name="Ellipse 50" class="cls-2" cx="32" cy="32" r="32" transform="translate(66 381)"/>
      <text id="PEOPLE-2" data-name="PEOPLE" class="cls-1" transform="translate(258 512)"><tspan x="-24.917" y="0">PEOPLE</tspan></text>
      <circle id="Ellipse_51" data-name="Ellipse 51" class="cls-2" cx="32" cy="32" r="32" transform="translate(226 421)"/>
      <text id="PROBLEM" class="cls-1" transform="translate(308 362)"><tspan x="-31.661" y="0">PROBLEM</tspan></text>
      <circle id="Ellipse_52" data-name="Ellipse 52" class="cls-2" cx="32" cy="32" r="32" transform="translate(276 271)"/>
      <text id="SOLUTION-2" data-name="SOLUTION" class="cls-1" transform="translate(58 352)"><tspan x="-33.028" y="0">SOLUTION</tspan></text>
      <circle id="Ellipse_53" data-name="Ellipse 53" class="cls-2" cx="32" cy="32" r="32" transform="translate(26 261)"/>
      <text id="PEOPLE-3" data-name="PEOPLE" class="cls-1" transform="translate(358 472)"><tspan x="-24.917" y="0">PEOPLE</tspan></text>
      <circle id="Ellipse_54" data-name="Ellipse 54" class="cls-2" cx="32" cy="32" r="32" transform="translate(326 381)"/>
      <text id="SOLUTION-3" data-name="SOLUTION" class="cls-1" transform="translate(-2 552)"><tspan x="-33.028" y="0">SOLUTION</tspan></text>
      <circle id="Ellipse_55" data-name="Ellipse 55" class="cls-2" cx="32" cy="32" r="32" transform="translate(-34 461)"/>
    </g>
    <line id="Line_1" data-name="Line 1" class="cls-3" x2="56" y2="34" transform="translate(103.5 1670.5)"/>
    <line id="Line_2" data-name="Line 2" class="cls-3" y1="30" x2="48" transform="translate(232.5 1679.5)"/>
    <line id="Line_3" data-name="Line 3" class="cls-3" x2="89" y2="23" transform="translate(235.5 1739.5)"/>
    <line id="Line_5" data-name="Line 5" class="cls-3" y1="94" x2="34" transform="translate(20.5 1717.5)"/>
    <line id="Line_6" data-name="Line 6" class="cls-3" y1="34" x2="35" transform="translate(37.5 1791.5)"/>
    <line id="Line_4" data-name="Line 4" class="cls-3" y1="29" x2="179" transform="translate(48.5 1821.5)"/>
  </g>
</svg>
